solid OpenSCAD_Model
  facet normal 0.447213 0.774597 0.447213
    outer loop
      vertex 0 1.1547 0
      vertex 0.8 0.57735 0.2
      vertex 1 0.57735 0
    endloop
  endfacet
  facet normal 0.447213 0.774597 0.447213
    outer loop
      vertex 0.8 0.57735 0.2
      vertex 0 1.1547 0
      vertex 0.1 0.981495 0.2
    endloop
  endfacet
  facet normal -0.419668 -0.726886 0.543614
    outer loop
      vertex 0.791611 0.52735 0.126667
      vertex 0.1 0.981495 0.2
      vertex 0.0608932 0.94923 0.126667
    endloop
  endfacet
  facet normal -0.419667 -0.726886 0.543614
    outer loop
      vertex 0.1 0.981495 0.2
      vertex 0.791611 0.52735 0.126667
      vertex 0.8 0.57735 0.2
    endloop
  endfacet
  facet normal -0.450632 -0.780518 -0.433269
    outer loop
      vertex 0 1.0547 0
      vertex 0.791611 0.52735 0.126667
      vertex 0.0608932 0.94923 0.126667
    endloop
  endfacet
  facet normal -0.450633 -0.780519 -0.433268
    outer loop
      vertex 0.791611 0.52735 0.126667
      vertex 0 1.0547 0
      vertex 0.913397 0.52735 0
    endloop
  endfacet
  facet normal 0.447213 0.774597 0.447213
    outer loop
      vertex 1 0.57735 0
      vertex 0.1 0.173205 1.6
      vertex 0 0 2
    endloop
  endfacet
  facet normal 0.447213 0.774597 0.447213
    outer loop
      vertex 0.1 0.173205 1.6
      vertex 1 0.57735 0
      vertex 0.8 0.57735 0.2
    endloop
  endfacet
  facet normal -0.816108 0.516657 -0.258908
    outer loop
      vertex 0.791611 0.52735 0.126667
      vertex 0.1 0.173205 1.6
      vertex 0.8 0.57735 0.2
    endloop
  endfacet
  facet normal -0.894556 0.272228 -0.354487
    outer loop
      vertex 0.1 0.173205 1.6
      vertex 0.791611 0.52735 0.126667
      vertex 0.0608932 0.10547 1.64667
    endloop
  endfacet
  facet normal -0.450634 -0.780517 -0.433269
    outer loop
      vertex 0.913397 0.52735 0
      vertex 0.0608932 0.10547 1.64667
      vertex 0.791611 0.52735 0.126667
    endloop
  endfacet
  facet normal -0.450649 -0.780505 -0.433274
    outer loop
      vertex 0.0608932 0.10547 1.64667
      vertex 0.913397 0.52735 0
      vertex -4.13756e-18 0 1.9
    endloop
  endfacet
  facet normal 0.447213 0.774597 0.447213
    outer loop
      vertex 0 1.1547 0
      vertex 0.1 0.173205 1.6
      vertex 0.1 0.981495 0.2
    endloop
  endfacet
  facet normal 0.447213 0.774597 0.447213
    outer loop
      vertex 0.1 0.173205 1.6
      vertex 0 1.1547 0
      vertex 0 0 2
    endloop
  endfacet
  facet normal 0.855491 -0.448443 -0.258908
    outer loop
      vertex 0.1 0.173205 1.6
      vertex 0.0608932 0.94923 0.126667
      vertex 0.1 0.981495 0.2
    endloop
  endfacet
  facet normal 0.683035 -0.638594 -0.354486
    outer loop
      vertex 0.0608932 0.94923 0.126667
      vertex 0.1 0.173205 1.6
      vertex 0.0608932 0.10547 1.64667
    endloop
  endfacet
  facet normal -0.450613 -0.780526 -0.433274
    outer loop
      vertex 0 1.0547 0
      vertex 0.0608932 0.10547 1.64667
      vertex -4.13756e-18 0 1.9
    endloop
  endfacet
  facet normal -0.450631 -0.780519 -0.433269
    outer loop
      vertex 0.0608932 0.10547 1.64667
      vertex 0 1.0547 0
      vertex 0.0608932 0.94923 0.126667
    endloop
  endfacet
  facet normal -0.447213 0.774597 0.447213
    outer loop
      vertex 0 1.1547 0
      vertex -0.8 0.57735 0.2
      vertex -0.1 0.981495 0.2
    endloop
  endfacet
  facet normal -0.447213 0.774597 0.447213
    outer loop
      vertex -0.8 0.57735 0.2
      vertex 0 1.1547 0
      vertex -1 0.57735 0
    endloop
  endfacet
  facet normal 0.419667 -0.726886 0.543614
    outer loop
      vertex -0.791611 0.52735 0.126667
      vertex -0.1 0.981495 0.2
      vertex -0.8 0.57735 0.2
    endloop
  endfacet
  facet normal 0.419668 -0.726886 0.543614
    outer loop
      vertex -0.1 0.981495 0.2
      vertex -0.791611 0.52735 0.126667
      vertex -0.0608932 0.94923 0.126667
    endloop
  endfacet
  facet normal 0.450633 -0.780519 -0.433268
    outer loop
      vertex 0 1.0547 0
      vertex -0.791611 0.52735 0.126667
      vertex -0.913397 0.52735 0
    endloop
  endfacet
  facet normal 0.450632 -0.780518 -0.433269
    outer loop
      vertex -0.791611 0.52735 0.126667
      vertex 0 1.0547 0
      vertex -0.0608932 0.94923 0.126667
    endloop
  endfacet
  facet normal -0.447213 0.774597 0.447213
    outer loop
      vertex 0 1.1547 0
      vertex -0.1 0.173205 1.6
      vertex 0 0 2
    endloop
  endfacet
  facet normal -0.447213 0.774597 0.447213
    outer loop
      vertex -0.1 0.173205 1.6
      vertex 0 1.1547 0
      vertex -0.1 0.981495 0.2
    endloop
  endfacet
  facet normal -0.855491 -0.448443 -0.258908
    outer loop
      vertex -0.0608932 0.94923 0.126667
      vertex -0.1 0.173205 1.6
      vertex -0.1 0.981495 0.2
    endloop
  endfacet
  facet normal -0.683035 -0.638594 -0.354486
    outer loop
      vertex -0.1 0.173205 1.6
      vertex -0.0608932 0.94923 0.126667
      vertex -0.0608932 0.10547 1.64667
    endloop
  endfacet
  facet normal 0.450631 -0.780519 -0.433269
    outer loop
      vertex 0 1.0547 0
      vertex -0.0608932 0.10547 1.64667
      vertex -0.0608932 0.94923 0.126667
    endloop
  endfacet
  facet normal 0.450613 -0.780526 -0.433274
    outer loop
      vertex -0.0608932 0.10547 1.64667
      vertex 0 1.0547 0
      vertex -4.13756e-18 0 1.9
    endloop
  endfacet
  facet normal -0.447213 0.774597 0.447213
    outer loop
      vertex -1 0.57735 0
      vertex -0.1 0.173205 1.6
      vertex -0.8 0.57735 0.2
    endloop
  endfacet
  facet normal -0.447213 0.774597 0.447213
    outer loop
      vertex -0.1 0.173205 1.6
      vertex -1 0.57735 0
      vertex 0 0 2
    endloop
  endfacet
  facet normal 0.816108 0.516657 -0.258908
    outer loop
      vertex -0.1 0.173205 1.6
      vertex -0.791611 0.52735 0.126667
      vertex -0.8 0.57735 0.2
    endloop
  endfacet
  facet normal 0.894556 0.272228 -0.354487
    outer loop
      vertex -0.791611 0.52735 0.126667
      vertex -0.1 0.173205 1.6
      vertex -0.0608932 0.10547 1.64667
    endloop
  endfacet
  facet normal 0.450649 -0.780505 -0.433274
    outer loop
      vertex -0.913397 0.52735 0
      vertex -0.0608932 0.10547 1.64667
      vertex -4.13756e-18 0 1.9
    endloop
  endfacet
  facet normal 0.450634 -0.780517 -0.433269
    outer loop
      vertex -0.0608932 0.10547 1.64667
      vertex -0.913397 0.52735 0
      vertex -0.791611 0.52735 0.126667
    endloop
  endfacet
  facet normal -0.894427 0 0.447214
    outer loop
      vertex -1 0.57735 0
      vertex -0.9 -0.404145 0.2
      vertex -0.9 0.404145 0.2
    endloop
  endfacet
  facet normal -0.894427 0 0.447214
    outer loop
      vertex -0.9 -0.404145 0.2
      vertex -1 0.57735 0
      vertex -1 -0.57735 0
    endloop
  endfacet
  facet normal 0.839334 -0 0.543616
    outer loop
      vertex -0.9 -0.404145 0.2
      vertex -0.852504 0.42188 0.126667
      vertex -0.9 0.404145 0.2
    endloop
  endfacet
  facet normal 0.839334 0 0.543616
    outer loop
      vertex -0.852504 0.42188 0.126667
      vertex -0.9 -0.404145 0.2
      vertex -0.852504 -0.42188 0.126667
    endloop
  endfacet
  facet normal 0.901265 0 -0.433268
    outer loop
      vertex -0.852504 -0.42188 0.126667
      vertex -0.913397 0.52735 0
      vertex -0.852504 0.42188 0.126667
    endloop
  endfacet
  facet normal 0.901265 0 -0.433268
    outer loop
      vertex -0.913397 0.52735 0
      vertex -0.852504 -0.42188 0.126667
      vertex -0.913397 -0.52735 0
    endloop
  endfacet
  facet normal -0.894427 -1.22854e-15 0.447214
    outer loop
      vertex -0.2 0 1.6
      vertex -1 0.57735 0
      vertex -0.9 0.404145 0.2
    endloop
  endfacet
  facet normal -0.894427 0 0.447214
    outer loop
      vertex -1 0.57735 0
      vertex -0.2 0 1.6
      vertex 0 0 2
    endloop
  endfacet
  facet normal -0.0393826 -0.965099 -0.258909
    outer loop
      vertex -0.852504 0.42188 0.126667
      vertex -0.2 0 1.6
      vertex -0.9 0.404145 0.2
    endloop
  endfacet
  facet normal 0.211521 -0.910823 -0.354486
    outer loop
      vertex -0.2 0 1.6
      vertex -0.852504 0.42188 0.126667
      vertex -0.121786 0 1.64667
    endloop
  endfacet
  facet normal 0.901263 -1.7122e-05 -0.433273
    outer loop
      vertex -0.121786 0 1.64667
      vertex -0.913397 0.52735 0
      vertex -4.13756e-18 0 1.9
    endloop
  endfacet
  facet normal 0.901264 -2.6498e-06 -0.43327
    outer loop
      vertex -0.913397 0.52735 0
      vertex -0.121786 0 1.64667
      vertex -0.852504 0.42188 0.126667
    endloop
  endfacet
  facet normal -0.894427 -3.07134e-16 0.447214
    outer loop
      vertex -1 -0.57735 0
      vertex -0.2 0 1.6
      vertex -0.9 -0.404145 0.2
    endloop
  endfacet
  facet normal -0.894427 -4.29988e-16 0.447214
    outer loop
      vertex -0.2 0 1.6
      vertex -1 -0.57735 0
      vertex 0 0 2
    endloop
  endfacet
  facet normal 0.211521 0.910823 -0.354486
    outer loop
      vertex -0.852504 -0.42188 0.126667
      vertex -0.2 0 1.6
      vertex -0.121786 0 1.64667
    endloop
  endfacet
  facet normal -0.0393826 0.965099 -0.258909
    outer loop
      vertex -0.2 0 1.6
      vertex -0.852504 -0.42188 0.126667
      vertex -0.9 -0.404145 0.2
    endloop
  endfacet
  facet normal 0.901263 1.7122e-05 -0.433273
    outer loop
      vertex -0.913397 -0.52735 0
      vertex -0.121786 0 1.64667
      vertex -4.13756e-18 0 1.9
    endloop
  endfacet
  facet normal 0.901264 2.6498e-06 -0.43327
    outer loop
      vertex -0.121786 0 1.64667
      vertex -0.913397 -0.52735 0
      vertex -0.852504 -0.42188 0.126667
    endloop
  endfacet
  facet normal -0.447213 -0.774597 0.447213
    outer loop
      vertex 0 -1.1547 0
      vertex -0.8 -0.57735 0.2
      vertex -1 -0.57735 0
    endloop
  endfacet
  facet normal -0.447213 -0.774597 0.447213
    outer loop
      vertex -0.8 -0.57735 0.2
      vertex 0 -1.1547 0
      vertex -0.1 -0.981495 0.2
    endloop
  endfacet
  facet normal 0.419668 0.726886 0.543614
    outer loop
      vertex -0.791611 -0.52735 0.126667
      vertex -0.1 -0.981495 0.2
      vertex -0.0608932 -0.94923 0.126667
    endloop
  endfacet
  facet normal 0.419667 0.726886 0.543614
    outer loop
      vertex -0.1 -0.981495 0.2
      vertex -0.791611 -0.52735 0.126667
      vertex -0.8 -0.57735 0.2
    endloop
  endfacet
  facet normal 0.450632 0.780518 -0.433269
    outer loop
      vertex 0 -1.0547 0
      vertex -0.791611 -0.52735 0.126667
      vertex -0.0608932 -0.94923 0.126667
    endloop
  endfacet
  facet normal 0.450633 0.780519 -0.433268
    outer loop
      vertex -0.791611 -0.52735 0.126667
      vertex 0 -1.0547 0
      vertex -0.913397 -0.52735 0
    endloop
  endfacet
  facet normal -0.447213 -0.774597 0.447213
    outer loop
      vertex -1 -0.57735 0
      vertex -0.1 -0.173205 1.6
      vertex 0 0 2
    endloop
  endfacet
  facet normal -0.447213 -0.774597 0.447213
    outer loop
      vertex -0.1 -0.173205 1.6
      vertex -1 -0.57735 0
      vertex -0.8 -0.57735 0.2
    endloop
  endfacet
  facet normal 0.894556 -0.272228 -0.354487
    outer loop
      vertex -0.1 -0.173205 1.6
      vertex -0.791611 -0.52735 0.126667
      vertex -0.0608932 -0.10547 1.64667
    endloop
  endfacet
  facet normal 0.816108 -0.516657 -0.258908
    outer loop
      vertex -0.791611 -0.52735 0.126667
      vertex -0.1 -0.173205 1.6
      vertex -0.8 -0.57735 0.2
    endloop
  endfacet
  facet normal 0.450634 0.780517 -0.433269
    outer loop
      vertex -0.913397 -0.52735 0
      vertex -0.0608932 -0.10547 1.64667
      vertex -0.791611 -0.52735 0.126667
    endloop
  endfacet
  facet normal 0.450649 0.780505 -0.433274
    outer loop
      vertex -0.0608932 -0.10547 1.64667
      vertex -0.913397 -0.52735 0
      vertex -4.13756e-18 0 1.9
    endloop
  endfacet
  facet normal -0.447213 -0.774597 0.447213
    outer loop
      vertex 0 -1.1547 0
      vertex -0.1 -0.173205 1.6
      vertex -0.1 -0.981495 0.2
    endloop
  endfacet
  facet normal -0.447213 -0.774597 0.447213
    outer loop
      vertex -0.1 -0.173205 1.6
      vertex 0 -1.1547 0
      vertex 0 0 2
    endloop
  endfacet
  facet normal -0.683035 0.638594 -0.354486
    outer loop
      vertex -0.0608932 -0.94923 0.126667
      vertex -0.1 -0.173205 1.6
      vertex -0.0608932 -0.10547 1.64667
    endloop
  endfacet
  facet normal -0.855491 0.448443 -0.258908
    outer loop
      vertex -0.1 -0.173205 1.6
      vertex -0.0608932 -0.94923 0.126667
      vertex -0.1 -0.981495 0.2
    endloop
  endfacet
  facet normal 0.450613 0.780526 -0.433274
    outer loop
      vertex 0 -1.0547 0
      vertex -0.0608932 -0.10547 1.64667
      vertex -4.13756e-18 0 1.9
    endloop
  endfacet
  facet normal 0.450631 0.780519 -0.433269
    outer loop
      vertex -0.0608932 -0.10547 1.64667
      vertex 0 -1.0547 0
      vertex -0.0608932 -0.94923 0.126667
    endloop
  endfacet
  facet normal 0.447213 -0.774597 0.447213
    outer loop
      vertex 0 -1.1547 0
      vertex 0.8 -0.57735 0.2
      vertex 0.1 -0.981495 0.2
    endloop
  endfacet
  facet normal 0.447213 -0.774597 0.447213
    outer loop
      vertex 0.8 -0.57735 0.2
      vertex 0 -1.1547 0
      vertex 1 -0.57735 0
    endloop
  endfacet
  facet normal -0.419667 0.726886 0.543614
    outer loop
      vertex 0.791611 -0.52735 0.126667
      vertex 0.1 -0.981495 0.2
      vertex 0.8 -0.57735 0.2
    endloop
  endfacet
  facet normal -0.419668 0.726886 0.543614
    outer loop
      vertex 0.1 -0.981495 0.2
      vertex 0.791611 -0.52735 0.126667
      vertex 0.0608932 -0.94923 0.126667
    endloop
  endfacet
  facet normal -0.450633 0.780519 -0.433268
    outer loop
      vertex 0 -1.0547 0
      vertex 0.791611 -0.52735 0.126667
      vertex 0.913397 -0.52735 0
    endloop
  endfacet
  facet normal -0.450632 0.780518 -0.433269
    outer loop
      vertex 0.791611 -0.52735 0.126667
      vertex 0 -1.0547 0
      vertex 0.0608932 -0.94923 0.126667
    endloop
  endfacet
  facet normal 0.447213 -0.774597 0.447213
    outer loop
      vertex 0 -1.1547 0
      vertex 0.1 -0.173205 1.6
      vertex 0 0 2
    endloop
  endfacet
  facet normal 0.447213 -0.774597 0.447213
    outer loop
      vertex 0.1 -0.173205 1.6
      vertex 0 -1.1547 0
      vertex 0.1 -0.981495 0.2
    endloop
  endfacet
  facet normal 0.683035 0.638594 -0.354486
    outer loop
      vertex 0.1 -0.173205 1.6
      vertex 0.0608932 -0.94923 0.126667
      vertex 0.0608932 -0.10547 1.64667
    endloop
  endfacet
  facet normal 0.855491 0.448443 -0.258908
    outer loop
      vertex 0.0608932 -0.94923 0.126667
      vertex 0.1 -0.173205 1.6
      vertex 0.1 -0.981495 0.2
    endloop
  endfacet
  facet normal -0.450631 0.780519 -0.433269
    outer loop
      vertex 0 -1.0547 0
      vertex 0.0608932 -0.10547 1.64667
      vertex 0.0608932 -0.94923 0.126667
    endloop
  endfacet
  facet normal -0.450613 0.780526 -0.433274
    outer loop
      vertex 0.0608932 -0.10547 1.64667
      vertex 0 -1.0547 0
      vertex -4.13756e-18 0 1.9
    endloop
  endfacet
  facet normal 0.447213 -0.774597 0.447213
    outer loop
      vertex 1 -0.57735 0
      vertex 0.1 -0.173205 1.6
      vertex 0.8 -0.57735 0.2
    endloop
  endfacet
  facet normal 0.447213 -0.774597 0.447213
    outer loop
      vertex 0.1 -0.173205 1.6
      vertex 1 -0.57735 0
      vertex 0 0 2
    endloop
  endfacet
  facet normal -0.894556 -0.272228 -0.354487
    outer loop
      vertex 0.791611 -0.52735 0.126667
      vertex 0.1 -0.173205 1.6
      vertex 0.0608932 -0.10547 1.64667
    endloop
  endfacet
  facet normal -0.816108 -0.516657 -0.258908
    outer loop
      vertex 0.1 -0.173205 1.6
      vertex 0.791611 -0.52735 0.126667
      vertex 0.8 -0.57735 0.2
    endloop
  endfacet
  facet normal -0.450649 0.780505 -0.433274
    outer loop
      vertex 0.913397 -0.52735 0
      vertex 0.0608932 -0.10547 1.64667
      vertex -4.13756e-18 0 1.9
    endloop
  endfacet
  facet normal -0.450634 0.780517 -0.433269
    outer loop
      vertex 0.0608932 -0.10547 1.64667
      vertex 0.913397 -0.52735 0
      vertex 0.791611 -0.52735 0.126667
    endloop
  endfacet
  facet normal 0.894427 -0 0.447214
    outer loop
      vertex 0.9 -0.404145 0.2
      vertex 1 0.57735 0
      vertex 0.9 0.404145 0.2
    endloop
  endfacet
  facet normal 0.894427 0 0.447214
    outer loop
      vertex 1 0.57735 0
      vertex 0.9 -0.404145 0.2
      vertex 1 -0.57735 0
    endloop
  endfacet
  facet normal -0.839334 0 0.543616
    outer loop
      vertex 0.852504 0.42188 0.126667
      vertex 0.9 -0.404145 0.2
      vertex 0.9 0.404145 0.2
    endloop
  endfacet
  facet normal -0.839334 0 0.543616
    outer loop
      vertex 0.9 -0.404145 0.2
      vertex 0.852504 0.42188 0.126667
      vertex 0.852504 -0.42188 0.126667
    endloop
  endfacet
  facet normal -0.901265 0 -0.433268
    outer loop
      vertex 0.913397 0.52735 0
      vertex 0.852504 -0.42188 0.126667
      vertex 0.852504 0.42188 0.126667
    endloop
  endfacet
  facet normal -0.901265 0 -0.433268
    outer loop
      vertex 0.852504 -0.42188 0.126667
      vertex 0.913397 0.52735 0
      vertex 0.913397 -0.52735 0
    endloop
  endfacet
  facet normal 0.894427 0 0.447214
    outer loop
      vertex 1 -0.57735 0
      vertex 0.2 0 1.6
      vertex 0 0 2
    endloop
  endfacet
  facet normal 0.894427 1.22854e-15 0.447214
    outer loop
      vertex 0.2 0 1.6
      vertex 1 -0.57735 0
      vertex 0.9 -0.404145 0.2
    endloop
  endfacet
  facet normal 0.0393826 0.965099 -0.258909
    outer loop
      vertex 0.852504 -0.42188 0.126667
      vertex 0.2 0 1.6
      vertex 0.9 -0.404145 0.2
    endloop
  endfacet
  facet normal -0.211521 0.910823 -0.354486
    outer loop
      vertex 0.2 0 1.6
      vertex 0.852504 -0.42188 0.126667
      vertex 0.121786 0 1.64667
    endloop
  endfacet
  facet normal -0.901264 2.6498e-06 -0.43327
    outer loop
      vertex 0.913397 -0.52735 0
      vertex 0.121786 0 1.64667
      vertex 0.852504 -0.42188 0.126667
    endloop
  endfacet
  facet normal -0.901263 1.7122e-05 -0.433273
    outer loop
      vertex 0.121786 0 1.64667
      vertex 0.913397 -0.52735 0
      vertex -4.13756e-18 0 1.9
    endloop
  endfacet
  facet normal 0.894427 4.29988e-16 0.447214
    outer loop
      vertex 0.2 0 1.6
      vertex 1 0.57735 0
      vertex 0 0 2
    endloop
  endfacet
  facet normal 0.894427 3.07134e-16 0.447214
    outer loop
      vertex 1 0.57735 0
      vertex 0.2 0 1.6
      vertex 0.9 0.404145 0.2
    endloop
  endfacet
  facet normal -0.211521 -0.910823 -0.354486
    outer loop
      vertex 0.852504 0.42188 0.126667
      vertex 0.2 0 1.6
      vertex 0.121786 0 1.64667
    endloop
  endfacet
  facet normal 0.0393826 -0.965099 -0.258909
    outer loop
      vertex 0.2 0 1.6
      vertex 0.852504 0.42188 0.126667
      vertex 0.9 0.404145 0.2
    endloop
  endfacet
  facet normal -0.901264 -2.6498e-06 -0.43327
    outer loop
      vertex 0.121786 0 1.64667
      vertex 0.913397 0.52735 0
      vertex 0.852504 0.42188 0.126667
    endloop
  endfacet
  facet normal -0.901263 -1.7122e-05 -0.433273
    outer loop
      vertex 0.913397 0.52735 0
      vertex 0.121786 0 1.64667
      vertex -4.13756e-18 0 1.9
    endloop
  endfacet
  facet normal 0.894427 0 -0.447214
    outer loop
      vertex 1 0.57735 0
      vertex 0.9 -0.404145 -0.2
      vertex 0.9 0.404145 -0.2
    endloop
  endfacet
  facet normal 0.894427 0 -0.447214
    outer loop
      vertex 0.9 -0.404145 -0.2
      vertex 1 0.57735 0
      vertex 1 -0.57735 0
    endloop
  endfacet
  facet normal -0.839334 0 -0.543616
    outer loop
      vertex 0.9 -0.404145 -0.2
      vertex 0.852504 0.42188 -0.126667
      vertex 0.9 0.404145 -0.2
    endloop
  endfacet
  facet normal -0.839334 -0 -0.543616
    outer loop
      vertex 0.852504 0.42188 -0.126667
      vertex 0.9 -0.404145 -0.2
      vertex 0.852504 -0.42188 -0.126667
    endloop
  endfacet
  facet normal -0.901265 0 0.433268
    outer loop
      vertex 0.852504 -0.42188 -0.126667
      vertex 0.913397 0.52735 0
      vertex 0.852504 0.42188 -0.126667
    endloop
  endfacet
  facet normal -0.901265 0 0.433268
    outer loop
      vertex 0.913397 0.52735 0
      vertex 0.852504 -0.42188 -0.126667
      vertex 0.913397 -0.52735 0
    endloop
  endfacet
  facet normal 0.894427 -1.22854e-15 -0.447214
    outer loop
      vertex 0.2 0 -1.6
      vertex 1 0.57735 0
      vertex 0.9 0.404145 -0.2
    endloop
  endfacet
  facet normal 0.894427 0 -0.447214
    outer loop
      vertex 1 0.57735 0
      vertex 0.2 0 -1.6
      vertex 0 0 -2
    endloop
  endfacet
  facet normal 0.0393826 -0.965099 0.258909
    outer loop
      vertex 0.852504 0.42188 -0.126667
      vertex 0.2 0 -1.6
      vertex 0.9 0.404145 -0.2
    endloop
  endfacet
  facet normal -0.211521 -0.910823 0.354486
    outer loop
      vertex 0.2 0 -1.6
      vertex 0.852504 0.42188 -0.126667
      vertex 0.121786 0 -1.64667
    endloop
  endfacet
  facet normal -0.901263 -1.7122e-05 0.433273
    outer loop
      vertex 0.121786 0 -1.64667
      vertex 0.913397 0.52735 0
      vertex 4.13756e-18 0 -1.9
    endloop
  endfacet
  facet normal -0.901264 -2.6498e-06 0.43327
    outer loop
      vertex 0.913397 0.52735 0
      vertex 0.121786 0 -1.64667
      vertex 0.852504 0.42188 -0.126667
    endloop
  endfacet
  facet normal 0.894427 -3.07134e-16 -0.447214
    outer loop
      vertex 1 -0.57735 0
      vertex 0.2 0 -1.6
      vertex 0.9 -0.404145 -0.2
    endloop
  endfacet
  facet normal 0.894427 -4.29988e-16 -0.447214
    outer loop
      vertex 0.2 0 -1.6
      vertex 1 -0.57735 0
      vertex 0 0 -2
    endloop
  endfacet
  facet normal 0.0393826 0.965099 0.258909
    outer loop
      vertex 0.2 0 -1.6
      vertex 0.852504 -0.42188 -0.126667
      vertex 0.9 -0.404145 -0.2
    endloop
  endfacet
  facet normal -0.211521 0.910823 0.354486
    outer loop
      vertex 0.852504 -0.42188 -0.126667
      vertex 0.2 0 -1.6
      vertex 0.121786 0 -1.64667
    endloop
  endfacet
  facet normal -0.901263 1.7122e-05 0.433273
    outer loop
      vertex 0.913397 -0.52735 0
      vertex 0.121786 0 -1.64667
      vertex 4.13756e-18 0 -1.9
    endloop
  endfacet
  facet normal -0.901264 2.6498e-06 0.43327
    outer loop
      vertex 0.121786 0 -1.64667
      vertex 0.913397 -0.52735 0
      vertex 0.852504 -0.42188 -0.126667
    endloop
  endfacet
  facet normal 0.447213 -0.774597 -0.447213
    outer loop
      vertex 0.8 -0.57735 -0.2
      vertex 0 -1.1547 0
      vertex 0.1 -0.981495 -0.2
    endloop
  endfacet
  facet normal 0.447213 -0.774597 -0.447213
    outer loop
      vertex 0 -1.1547 0
      vertex 0.8 -0.57735 -0.2
      vertex 1 -0.57735 0
    endloop
  endfacet
  facet normal -0.419667 0.726886 -0.543614
    outer loop
      vertex 0.1 -0.981495 -0.2
      vertex 0.791611 -0.52735 -0.126667
      vertex 0.8 -0.57735 -0.2
    endloop
  endfacet
  facet normal -0.419668 0.726886 -0.543614
    outer loop
      vertex 0.791611 -0.52735 -0.126667
      vertex 0.1 -0.981495 -0.2
      vertex 0.0608932 -0.94923 -0.126667
    endloop
  endfacet
  facet normal -0.450633 0.780519 0.433268
    outer loop
      vertex 0.791611 -0.52735 -0.126667
      vertex 0 -1.0547 0
      vertex 0.913397 -0.52735 0
    endloop
  endfacet
  facet normal -0.450632 0.780518 0.433269
    outer loop
      vertex 0 -1.0547 0
      vertex 0.791611 -0.52735 -0.126667
      vertex 0.0608932 -0.94923 -0.126667
    endloop
  endfacet
  facet normal 0.447213 -0.774597 -0.447213
    outer loop
      vertex 0.1 -0.173205 -1.6
      vertex 1 -0.57735 0
      vertex 0.8 -0.57735 -0.2
    endloop
  endfacet
  facet normal 0.447213 -0.774597 -0.447213
    outer loop
      vertex 1 -0.57735 0
      vertex 0.1 -0.173205 -1.6
      vertex 0 0 -2
    endloop
  endfacet
  facet normal -0.894556 -0.272228 0.354487
    outer loop
      vertex 0.1 -0.173205 -1.6
      vertex 0.791611 -0.52735 -0.126667
      vertex 0.0608932 -0.10547 -1.64667
    endloop
  endfacet
  facet normal -0.816108 -0.516657 0.258908
    outer loop
      vertex 0.791611 -0.52735 -0.126667
      vertex 0.1 -0.173205 -1.6
      vertex 0.8 -0.57735 -0.2
    endloop
  endfacet
  facet normal -0.450634 0.780517 0.433269
    outer loop
      vertex 0.913397 -0.52735 0
      vertex 0.0608932 -0.10547 -1.64667
      vertex 0.791611 -0.52735 -0.126667
    endloop
  endfacet
  facet normal -0.450649 0.780505 0.433274
    outer loop
      vertex 0.0608932 -0.10547 -1.64667
      vertex 0.913397 -0.52735 0
      vertex 4.13756e-18 0 -1.9
    endloop
  endfacet
  facet normal 0.447213 -0.774597 -0.447213
    outer loop
      vertex 0 -1.1547 0
      vertex 0.1 -0.173205 -1.6
      vertex 0.1 -0.981495 -0.2
    endloop
  endfacet
  facet normal 0.447213 -0.774597 -0.447213
    outer loop
      vertex 0.1 -0.173205 -1.6
      vertex 0 -1.1547 0
      vertex 0 0 -2
    endloop
  endfacet
  facet normal 0.683035 0.638594 0.354486
    outer loop
      vertex 0.0608932 -0.94923 -0.126667
      vertex 0.1 -0.173205 -1.6
      vertex 0.0608932 -0.10547 -1.64667
    endloop
  endfacet
  facet normal 0.855491 0.448443 0.258908
    outer loop
      vertex 0.1 -0.173205 -1.6
      vertex 0.0608932 -0.94923 -0.126667
      vertex 0.1 -0.981495 -0.2
    endloop
  endfacet
  facet normal -0.450631 0.780519 0.433269
    outer loop
      vertex 0.0608932 -0.10547 -1.64667
      vertex 0 -1.0547 0
      vertex 0.0608932 -0.94923 -0.126667
    endloop
  endfacet
  facet normal -0.450613 0.780526 0.433274
    outer loop
      vertex 0 -1.0547 0
      vertex 0.0608932 -0.10547 -1.64667
      vertex 4.13756e-18 0 -1.9
    endloop
  endfacet
  facet normal -0.447213 -0.774597 -0.447213
    outer loop
      vertex -0.8 -0.57735 -0.2
      vertex 0 -1.1547 0
      vertex -1 -0.57735 0
    endloop
  endfacet
  facet normal -0.447213 -0.774597 -0.447213
    outer loop
      vertex 0 -1.1547 0
      vertex -0.8 -0.57735 -0.2
      vertex -0.1 -0.981495 -0.2
    endloop
  endfacet
  facet normal 0.419668 0.726886 -0.543614
    outer loop
      vertex -0.1 -0.981495 -0.2
      vertex -0.791611 -0.52735 -0.126667
      vertex -0.0608932 -0.94923 -0.126667
    endloop
  endfacet
  facet normal 0.419667 0.726886 -0.543614
    outer loop
      vertex -0.791611 -0.52735 -0.126667
      vertex -0.1 -0.981495 -0.2
      vertex -0.8 -0.57735 -0.2
    endloop
  endfacet
  facet normal 0.450632 0.780518 0.433269
    outer loop
      vertex -0.791611 -0.52735 -0.126667
      vertex 0 -1.0547 0
      vertex -0.0608932 -0.94923 -0.126667
    endloop
  endfacet
  facet normal 0.450633 0.780519 0.433268
    outer loop
      vertex 0 -1.0547 0
      vertex -0.791611 -0.52735 -0.126667
      vertex -0.913397 -0.52735 0
    endloop
  endfacet
  facet normal -0.447213 -0.774597 -0.447213
    outer loop
      vertex -0.1 -0.173205 -1.6
      vertex 0 -1.1547 0
      vertex -0.1 -0.981495 -0.2
    endloop
  endfacet
  facet normal -0.447213 -0.774597 -0.447213
    outer loop
      vertex 0 -1.1547 0
      vertex -0.1 -0.173205 -1.6
      vertex 0 0 -2
    endloop
  endfacet
  facet normal -0.683035 0.638594 0.354486
    outer loop
      vertex -0.1 -0.173205 -1.6
      vertex -0.0608932 -0.94923 -0.126667
      vertex -0.0608932 -0.10547 -1.64667
    endloop
  endfacet
  facet normal -0.855491 0.448443 0.258908
    outer loop
      vertex -0.0608932 -0.94923 -0.126667
      vertex -0.1 -0.173205 -1.6
      vertex -0.1 -0.981495 -0.2
    endloop
  endfacet
  facet normal 0.450631 0.780519 0.433269
    outer loop
      vertex 0 -1.0547 0
      vertex -0.0608932 -0.10547 -1.64667
      vertex -0.0608932 -0.94923 -0.126667
    endloop
  endfacet
  facet normal 0.450613 0.780526 0.433274
    outer loop
      vertex -0.0608932 -0.10547 -1.64667
      vertex 0 -1.0547 0
      vertex 4.13756e-18 0 -1.9
    endloop
  endfacet
  facet normal -0.447213 -0.774597 -0.447213
    outer loop
      vertex -1 -0.57735 0
      vertex -0.1 -0.173205 -1.6
      vertex -0.8 -0.57735 -0.2
    endloop
  endfacet
  facet normal -0.447213 -0.774597 -0.447213
    outer loop
      vertex -0.1 -0.173205 -1.6
      vertex -1 -0.57735 0
      vertex 0 0 -2
    endloop
  endfacet
  facet normal 0.894556 -0.272228 0.354487
    outer loop
      vertex -0.791611 -0.52735 -0.126667
      vertex -0.1 -0.173205 -1.6
      vertex -0.0608932 -0.10547 -1.64667
    endloop
  endfacet
  facet normal 0.816108 -0.516657 0.258908
    outer loop
      vertex -0.1 -0.173205 -1.6
      vertex -0.791611 -0.52735 -0.126667
      vertex -0.8 -0.57735 -0.2
    endloop
  endfacet
  facet normal 0.450634 0.780517 0.433269
    outer loop
      vertex -0.0608932 -0.10547 -1.64667
      vertex -0.913397 -0.52735 0
      vertex -0.791611 -0.52735 -0.126667
    endloop
  endfacet
  facet normal 0.450649 0.780505 0.433274
    outer loop
      vertex -0.913397 -0.52735 0
      vertex -0.0608932 -0.10547 -1.64667
      vertex 4.13756e-18 0 -1.9
    endloop
  endfacet
  facet normal -0.894427 0 -0.447214
    outer loop
      vertex -0.9 -0.404145 -0.2
      vertex -1 0.57735 0
      vertex -0.9 0.404145 -0.2
    endloop
  endfacet
  facet normal -0.894427 -0 -0.447214
    outer loop
      vertex -1 0.57735 0
      vertex -0.9 -0.404145 -0.2
      vertex -1 -0.57735 0
    endloop
  endfacet
  facet normal 0.839334 0 -0.543616
    outer loop
      vertex -0.852504 0.42188 -0.126667
      vertex -0.9 -0.404145 -0.2
      vertex -0.9 0.404145 -0.2
    endloop
  endfacet
  facet normal 0.839334 0 -0.543616
    outer loop
      vertex -0.9 -0.404145 -0.2
      vertex -0.852504 0.42188 -0.126667
      vertex -0.852504 -0.42188 -0.126667
    endloop
  endfacet
  facet normal 0.901265 0 0.433268
    outer loop
      vertex -0.913397 0.52735 0
      vertex -0.852504 -0.42188 -0.126667
      vertex -0.852504 0.42188 -0.126667
    endloop
  endfacet
  facet normal 0.901265 0 0.433268
    outer loop
      vertex -0.852504 -0.42188 -0.126667
      vertex -0.913397 0.52735 0
      vertex -0.913397 -0.52735 0
    endloop
  endfacet
  facet normal -0.894427 0 -0.447214
    outer loop
      vertex -1 -0.57735 0
      vertex -0.2 0 -1.6
      vertex 0 0 -2
    endloop
  endfacet
  facet normal -0.894427 1.22854e-15 -0.447214
    outer loop
      vertex -0.2 0 -1.6
      vertex -1 -0.57735 0
      vertex -0.9 -0.404145 -0.2
    endloop
  endfacet
  facet normal -0.0393826 0.965099 0.258909
    outer loop
      vertex -0.852504 -0.42188 -0.126667
      vertex -0.2 0 -1.6
      vertex -0.9 -0.404145 -0.2
    endloop
  endfacet
  facet normal 0.211521 0.910823 0.354486
    outer loop
      vertex -0.2 0 -1.6
      vertex -0.852504 -0.42188 -0.126667
      vertex -0.121786 0 -1.64667
    endloop
  endfacet
  facet normal 0.901264 2.6498e-06 0.43327
    outer loop
      vertex -0.913397 -0.52735 0
      vertex -0.121786 0 -1.64667
      vertex -0.852504 -0.42188 -0.126667
    endloop
  endfacet
  facet normal 0.901263 1.7122e-05 0.433273
    outer loop
      vertex -0.121786 0 -1.64667
      vertex -0.913397 -0.52735 0
      vertex 4.13756e-18 0 -1.9
    endloop
  endfacet
  facet normal -0.894427 4.29988e-16 -0.447214
    outer loop
      vertex -0.2 0 -1.6
      vertex -1 0.57735 0
      vertex 0 0 -2
    endloop
  endfacet
  facet normal -0.894427 3.07134e-16 -0.447214
    outer loop
      vertex -1 0.57735 0
      vertex -0.2 0 -1.6
      vertex -0.9 0.404145 -0.2
    endloop
  endfacet
  facet normal -0.0393826 -0.965099 0.258909
    outer loop
      vertex -0.2 0 -1.6
      vertex -0.852504 0.42188 -0.126667
      vertex -0.9 0.404145 -0.2
    endloop
  endfacet
  facet normal 0.211521 -0.910823 0.354486
    outer loop
      vertex -0.852504 0.42188 -0.126667
      vertex -0.2 0 -1.6
      vertex -0.121786 0 -1.64667
    endloop
  endfacet
  facet normal 0.901264 -2.6498e-06 0.43327
    outer loop
      vertex -0.121786 0 -1.64667
      vertex -0.913397 0.52735 0
      vertex -0.852504 0.42188 -0.126667
    endloop
  endfacet
  facet normal 0.901263 -1.7122e-05 0.433273
    outer loop
      vertex -0.913397 0.52735 0
      vertex -0.121786 0 -1.64667
      vertex 4.13756e-18 0 -1.9
    endloop
  endfacet
  facet normal -0.447213 0.774597 -0.447213
    outer loop
      vertex -0.8 0.57735 -0.2
      vertex 0 1.1547 0
      vertex -0.1 0.981495 -0.2
    endloop
  endfacet
  facet normal -0.447213 0.774597 -0.447213
    outer loop
      vertex 0 1.1547 0
      vertex -0.8 0.57735 -0.2
      vertex -1 0.57735 0
    endloop
  endfacet
  facet normal 0.419667 -0.726886 -0.543614
    outer loop
      vertex -0.1 0.981495 -0.2
      vertex -0.791611 0.52735 -0.126667
      vertex -0.8 0.57735 -0.2
    endloop
  endfacet
  facet normal 0.419668 -0.726886 -0.543614
    outer loop
      vertex -0.791611 0.52735 -0.126667
      vertex -0.1 0.981495 -0.2
      vertex -0.0608932 0.94923 -0.126667
    endloop
  endfacet
  facet normal 0.450633 -0.780519 0.433268
    outer loop
      vertex -0.791611 0.52735 -0.126667
      vertex 0 1.0547 0
      vertex -0.913397 0.52735 0
    endloop
  endfacet
  facet normal 0.450632 -0.780518 0.433269
    outer loop
      vertex 0 1.0547 0
      vertex -0.791611 0.52735 -0.126667
      vertex -0.0608932 0.94923 -0.126667
    endloop
  endfacet
  facet normal -0.447213 0.774597 -0.447213
    outer loop
      vertex -0.1 0.173205 -1.6
      vertex -1 0.57735 0
      vertex -0.8 0.57735 -0.2
    endloop
  endfacet
  facet normal -0.447213 0.774597 -0.447213
    outer loop
      vertex -1 0.57735 0
      vertex -0.1 0.173205 -1.6
      vertex 0 0 -2
    endloop
  endfacet
  facet normal 0.816108 0.516657 0.258908
    outer loop
      vertex -0.791611 0.52735 -0.126667
      vertex -0.1 0.173205 -1.6
      vertex -0.8 0.57735 -0.2
    endloop
  endfacet
  facet normal 0.894556 0.272228 0.354487
    outer loop
      vertex -0.1 0.173205 -1.6
      vertex -0.791611 0.52735 -0.126667
      vertex -0.0608932 0.10547 -1.64667
    endloop
  endfacet
  facet normal 0.450634 -0.780517 0.433269
    outer loop
      vertex -0.913397 0.52735 0
      vertex -0.0608932 0.10547 -1.64667
      vertex -0.791611 0.52735 -0.126667
    endloop
  endfacet
  facet normal 0.450649 -0.780505 0.433274
    outer loop
      vertex -0.0608932 0.10547 -1.64667
      vertex -0.913397 0.52735 0
      vertex 4.13756e-18 0 -1.9
    endloop
  endfacet
  facet normal -0.447213 0.774597 -0.447213
    outer loop
      vertex 0 1.1547 0
      vertex -0.1 0.173205 -1.6
      vertex -0.1 0.981495 -0.2
    endloop
  endfacet
  facet normal -0.447213 0.774597 -0.447213
    outer loop
      vertex -0.1 0.173205 -1.6
      vertex 0 1.1547 0
      vertex 0 0 -2
    endloop
  endfacet
  facet normal -0.855491 -0.448443 0.258908
    outer loop
      vertex -0.1 0.173205 -1.6
      vertex -0.0608932 0.94923 -0.126667
      vertex -0.1 0.981495 -0.2
    endloop
  endfacet
  facet normal -0.683035 -0.638594 0.354486
    outer loop
      vertex -0.0608932 0.94923 -0.126667
      vertex -0.1 0.173205 -1.6
      vertex -0.0608932 0.10547 -1.64667
    endloop
  endfacet
  facet normal 0.450631 -0.780519 0.433269
    outer loop
      vertex -0.0608932 0.10547 -1.64667
      vertex 0 1.0547 0
      vertex -0.0608932 0.94923 -0.126667
    endloop
  endfacet
  facet normal 0.450613 -0.780526 0.433274
    outer loop
      vertex 0 1.0547 0
      vertex -0.0608932 0.10547 -1.64667
      vertex 4.13756e-18 0 -1.9
    endloop
  endfacet
  facet normal 0.447213 0.774597 -0.447213
    outer loop
      vertex 0.8 0.57735 -0.2
      vertex 0 1.1547 0
      vertex 1 0.57735 0
    endloop
  endfacet
  facet normal 0.447213 0.774597 -0.447213
    outer loop
      vertex 0 1.1547 0
      vertex 0.8 0.57735 -0.2
      vertex 0.1 0.981495 -0.2
    endloop
  endfacet
  facet normal -0.419668 -0.726886 -0.543614
    outer loop
      vertex 0.1 0.981495 -0.2
      vertex 0.791611 0.52735 -0.126667
      vertex 0.0608932 0.94923 -0.126667
    endloop
  endfacet
  facet normal -0.419667 -0.726886 -0.543614
    outer loop
      vertex 0.791611 0.52735 -0.126667
      vertex 0.1 0.981495 -0.2
      vertex 0.8 0.57735 -0.2
    endloop
  endfacet
  facet normal -0.450632 -0.780518 0.433269
    outer loop
      vertex 0.791611 0.52735 -0.126667
      vertex 0 1.0547 0
      vertex 0.0608932 0.94923 -0.126667
    endloop
  endfacet
  facet normal -0.450633 -0.780519 0.433268
    outer loop
      vertex 0 1.0547 0
      vertex 0.791611 0.52735 -0.126667
      vertex 0.913397 0.52735 0
    endloop
  endfacet
  facet normal 0.447213 0.774597 -0.447213
    outer loop
      vertex 0.1 0.173205 -1.6
      vertex 0 1.1547 0
      vertex 0.1 0.981495 -0.2
    endloop
  endfacet
  facet normal 0.447213 0.774597 -0.447213
    outer loop
      vertex 0 1.1547 0
      vertex 0.1 0.173205 -1.6
      vertex 0 0 -2
    endloop
  endfacet
  facet normal 0.855491 -0.448443 0.258908
    outer loop
      vertex 0.0608932 0.94923 -0.126667
      vertex 0.1 0.173205 -1.6
      vertex 0.1 0.981495 -0.2
    endloop
  endfacet
  facet normal 0.683035 -0.638594 0.354486
    outer loop
      vertex 0.1 0.173205 -1.6
      vertex 0.0608932 0.94923 -0.126667
      vertex 0.0608932 0.10547 -1.64667
    endloop
  endfacet
  facet normal -0.450631 -0.780519 0.433269
    outer loop
      vertex 0 1.0547 0
      vertex 0.0608932 0.10547 -1.64667
      vertex 0.0608932 0.94923 -0.126667
    endloop
  endfacet
  facet normal -0.450613 -0.780526 0.433274
    outer loop
      vertex 0.0608932 0.10547 -1.64667
      vertex 0 1.0547 0
      vertex 4.13756e-18 0 -1.9
    endloop
  endfacet
  facet normal 0.447213 0.774597 -0.447213
    outer loop
      vertex 1 0.57735 0
      vertex 0.1 0.173205 -1.6
      vertex 0.8 0.57735 -0.2
    endloop
  endfacet
  facet normal 0.447213 0.774597 -0.447213
    outer loop
      vertex 0.1 0.173205 -1.6
      vertex 1 0.57735 0
      vertex 0 0 -2
    endloop
  endfacet
  facet normal -0.816108 0.516657 0.258908
    outer loop
      vertex 0.1 0.173205 -1.6
      vertex 0.791611 0.52735 -0.126667
      vertex 0.8 0.57735 -0.2
    endloop
  endfacet
  facet normal -0.894556 0.272228 0.354487
    outer loop
      vertex 0.791611 0.52735 -0.126667
      vertex 0.1 0.173205 -1.6
      vertex 0.0608932 0.10547 -1.64667
    endloop
  endfacet
  facet normal -0.450634 -0.780517 0.433269
    outer loop
      vertex 0.0608932 0.10547 -1.64667
      vertex 0.913397 0.52735 0
      vertex 0.791611 0.52735 -0.126667
    endloop
  endfacet
  facet normal -0.450649 -0.780505 0.433274
    outer loop
      vertex 0.913397 0.52735 0
      vertex 0.0608932 0.10547 -1.64667
      vertex 4.13756e-18 0 -1.9
    endloop
  endfacet
endsolid OpenSCAD_Model
