solid OpenSCAD_Model
  facet normal 0.447213 0.774597 0.447213
    outer loop
      vertex 0 1.1547 0
      vertex 0.766667 0.57735 0.233333
      vertex 1 0.57735 0
    endloop
  endfacet
  facet normal 0.447214 0.774597 0.447212
    outer loop
      vertex 0.766667 0.57735 0.233333
      vertex 0 1.1547 0
      vertex 0.116667 0.952628 0.233333
    endloop
  endfacet
  facet normal -0.0753822 -0.130566 0.98857
    outer loop
      vertex 0.116667 0.952628 0.233333
      vertex 0.567481 0.42735 0.198333
      vertex 0.766667 0.57735 0.233333
    endloop
  endfacet
  facet normal -0.0753822 -0.130566 0.98857
    outer loop
      vertex 0.567481 0.42735 0.198333
      vertex 0.116667 0.952628 0.233333
      vertex 0.0863558 0.705128 0.198333
    endloop
  endfacet
  facet normal -0.45843 -0.794024 -0.399209
    outer loop
      vertex 0 0.854701 0
      vertex 0.567481 0.42735 0.198333
      vertex 0.0863558 0.705128 0.198333
    endloop
  endfacet
  facet normal -0.458431 -0.794024 -0.399208
    outer loop
      vertex 0.567481 0.42735 0.198333
      vertex 0 0.854701 0
      vertex 0.740192 0.42735 0
    endloop
  endfacet
  facet normal 0.447208 0.774601 0.447212
    outer loop
      vertex 1 0.57735 0
      vertex 0.116667 0.202073 1.53333
      vertex 0 0 2
    endloop
  endfacet
  facet normal 0.447214 0.774596 0.447214
    outer loop
      vertex 0.116667 0.202073 1.53333
      vertex 1 0.57735 0
      vertex 0.766667 0.57735 0.233333
    endloop
  endfacet
  facet normal -0.630518 0.770606 -0.0928047
    outer loop
      vertex 0.766667 0.57735 0.233333
      vertex 0.0863558 0.149573 1.30333
      vertex 0.116667 0.202073 1.53333
    endloop
  endfacet
  facet normal -0.594174 0.802313 -0.0570211
    outer loop
      vertex 0.0863558 0.149573 1.30333
      vertex 0.766667 0.57735 0.233333
      vertex 0.567481 0.42735 0.198333
    endloop
  endfacet
  facet normal -0.458432 -0.794023 -0.399209
    outer loop
      vertex 0.740192 0.42735 0
      vertex 0.0863558 0.149573 1.30333
      vertex 0.567481 0.42735 0.198333
    endloop
  endfacet
  facet normal -0.458423 -0.79403 -0.399206
    outer loop
      vertex 0.0863558 0.149573 1.30333
      vertex 0.740192 0.42735 0
      vertex -1.24127e-17 0 1.7
    endloop
  endfacet
  facet normal 0.447209 0.774598 0.447215
    outer loop
      vertex 0 1.1547 0
      vertex 0.116667 0.202073 1.53333
      vertex 0.116667 0.952628 0.233333
    endloop
  endfacet
  facet normal 0.44722 0.774594 0.447212
    outer loop
      vertex 0.116667 0.202073 1.53333
      vertex 0 1.1547 0
      vertex 0 0 2
    endloop
  endfacet
  facet normal 0.982623 -0.160745 -0.0928061
    outer loop
      vertex 0.0863558 0.149573 1.30333
      vertex 0.116667 0.952628 0.233333
      vertex 0.116667 0.202073 1.53333
    endloop
  endfacet
  facet normal 0.99191 -0.113415 -0.0570213
    outer loop
      vertex 0.116667 0.952628 0.233333
      vertex 0.0863558 0.149573 1.30333
      vertex 0.0863558 0.705128 0.198333
    endloop
  endfacet
  facet normal -0.45844 -0.79402 -0.399206
    outer loop
      vertex 0 0.854701 0
      vertex 0.0863558 0.149573 1.30333
      vertex -1.24127e-17 0 1.7
    endloop
  endfacet
  facet normal -0.458433 -0.794023 -0.399208
    outer loop
      vertex 0.0863558 0.149573 1.30333
      vertex 0 0.854701 0
      vertex 0.0863558 0.705128 0.198333
    endloop
  endfacet
  facet normal -0.447214 0.774597 0.447212
    outer loop
      vertex 0 1.1547 0
      vertex -0.766667 0.57735 0.233333
      vertex -0.116667 0.952628 0.233333
    endloop
  endfacet
  facet normal -0.447213 0.774597 0.447213
    outer loop
      vertex -0.766667 0.57735 0.233333
      vertex 0 1.1547 0
      vertex -1 0.57735 0
    endloop
  endfacet
  facet normal 0.0753822 -0.130566 0.98857
    outer loop
      vertex -0.116667 0.952628 0.233333
      vertex -0.567481 0.42735 0.198333
      vertex -0.0863558 0.705128 0.198333
    endloop
  endfacet
  facet normal 0.0753822 -0.130566 0.98857
    outer loop
      vertex -0.567481 0.42735 0.198333
      vertex -0.116667 0.952628 0.233333
      vertex -0.766667 0.57735 0.233333
    endloop
  endfacet
  facet normal 0.458431 -0.794024 -0.399208
    outer loop
      vertex 0 0.854701 0
      vertex -0.567481 0.42735 0.198333
      vertex -0.740192 0.42735 0
    endloop
  endfacet
  facet normal 0.45843 -0.794024 -0.399209
    outer loop
      vertex -0.567481 0.42735 0.198333
      vertex 0 0.854701 0
      vertex -0.0863558 0.705128 0.198333
    endloop
  endfacet
  facet normal -0.44722 0.774594 0.447212
    outer loop
      vertex 0 1.1547 0
      vertex -0.116667 0.202073 1.53333
      vertex 0 0 2
    endloop
  endfacet
  facet normal -0.447209 0.774598 0.447215
    outer loop
      vertex -0.116667 0.202073 1.53333
      vertex 0 1.1547 0
      vertex -0.116667 0.952628 0.233333
    endloop
  endfacet
  facet normal -0.99191 -0.113415 -0.0570213
    outer loop
      vertex -0.0863558 0.149573 1.30333
      vertex -0.116667 0.952628 0.233333
      vertex -0.0863558 0.705128 0.198333
    endloop
  endfacet
  facet normal -0.982623 -0.160745 -0.0928061
    outer loop
      vertex -0.116667 0.952628 0.233333
      vertex -0.0863558 0.149573 1.30333
      vertex -0.116667 0.202073 1.53333
    endloop
  endfacet
  facet normal 0.458433 -0.794023 -0.399208
    outer loop
      vertex 0 0.854701 0
      vertex -0.0863558 0.149573 1.30333
      vertex -0.0863558 0.705128 0.198333
    endloop
  endfacet
  facet normal 0.45844 -0.79402 -0.399206
    outer loop
      vertex -0.0863558 0.149573 1.30333
      vertex 0 0.854701 0
      vertex -1.24127e-17 0 1.7
    endloop
  endfacet
  facet normal -0.447214 0.774596 0.447214
    outer loop
      vertex -1 0.57735 0
      vertex -0.116667 0.202073 1.53333
      vertex -0.766667 0.57735 0.233333
    endloop
  endfacet
  facet normal -0.447208 0.774601 0.447212
    outer loop
      vertex -0.116667 0.202073 1.53333
      vertex -1 0.57735 0
      vertex 0 0 2
    endloop
  endfacet
  facet normal 0.630518 0.770606 -0.0928047
    outer loop
      vertex -0.0863558 0.149573 1.30333
      vertex -0.766667 0.57735 0.233333
      vertex -0.116667 0.202073 1.53333
    endloop
  endfacet
  facet normal 0.594174 0.802313 -0.0570211
    outer loop
      vertex -0.766667 0.57735 0.233333
      vertex -0.0863558 0.149573 1.30333
      vertex -0.567481 0.42735 0.198333
    endloop
  endfacet
  facet normal 0.458423 -0.79403 -0.399206
    outer loop
      vertex -0.740192 0.42735 0
      vertex -0.0863558 0.149573 1.30333
      vertex -1.24127e-17 0 1.7
    endloop
  endfacet
  facet normal 0.458432 -0.794023 -0.399209
    outer loop
      vertex -0.0863558 0.149573 1.30333
      vertex -0.740192 0.42735 0
      vertex -0.567481 0.42735 0.198333
    endloop
  endfacet
  facet normal -0.894426 0 0.447215
    outer loop
      vertex -1 0.57735 0
      vertex -0.883333 -0.375278 0.233333
      vertex -0.883333 0.375278 0.233333
    endloop
  endfacet
  facet normal -0.894426 0 0.447215
    outer loop
      vertex -0.883333 -0.375278 0.233333
      vertex -1 0.57735 0
      vertex -1 -0.57735 0
    endloop
  endfacet
  facet normal 0.150765 0 0.98857
    outer loop
      vertex -0.883333 0.375278 0.233333
      vertex -0.653837 -0.277778 0.198333
      vertex -0.653837 0.277778 0.198333
    endloop
  endfacet
  facet normal 0.150765 0 0.98857
    outer loop
      vertex -0.653837 -0.277778 0.198333
      vertex -0.883333 0.375278 0.233333
      vertex -0.883333 -0.375278 0.233333
    endloop
  endfacet
  facet normal 0.916862 0 -0.399205
    outer loop
      vertex -0.653837 -0.277778 0.198333
      vertex -0.740192 0.42735 0
      vertex -0.653837 0.277778 0.198333
    endloop
  endfacet
  facet normal 0.916862 0 -0.399205
    outer loop
      vertex -0.740192 0.42735 0
      vertex -0.653837 -0.277778 0.198333
      vertex -0.740192 -0.42735 0
    endloop
  endfacet
  facet normal -0.894427 -1.53218e-06 0.447214
    outer loop
      vertex -0.233333 0 1.53333
      vertex -1 0.57735 0
      vertex -0.883333 0.375278 0.233333
    endloop
  endfacet
  facet normal -0.894429 -1.32787e-05 0.447211
    outer loop
      vertex -1 0.57735 0
      vertex -0.233333 0 1.53333
      vertex 0 0 2
    endloop
  endfacet
  facet normal -0.352106 -0.931348 -0.0928044
    outer loop
      vertex -0.883333 0.375278 0.233333
      vertex -0.172712 0 1.30333
      vertex -0.233333 0 1.53333
    endloop
  endfacet
  facet normal -0.397737 -0.915726 -0.0570205
    outer loop
      vertex -0.172712 0 1.30333
      vertex -0.883333 0.375278 0.233333
      vertex -0.653837 0.277778 0.198333
    endloop
  endfacet
  facet normal 0.916861 8.44099e-06 -0.399206
    outer loop
      vertex -0.172712 0 1.30333
      vertex -0.740192 0.42735 0
      vertex -1.24127e-17 0 1.7
    endloop
  endfacet
  facet normal 0.916859 -7.8942e-06 -0.39921
    outer loop
      vertex -0.740192 0.42735 0
      vertex -0.172712 0 1.30333
      vertex -0.653837 0.277778 0.198333
    endloop
  endfacet
  facet normal -0.894427 1.53218e-06 0.447214
    outer loop
      vertex -1 -0.57735 0
      vertex -0.233333 0 1.53333
      vertex -0.883333 -0.375278 0.233333
    endloop
  endfacet
  facet normal -0.894429 1.32787e-05 0.447211
    outer loop
      vertex -0.233333 0 1.53333
      vertex -1 -0.57735 0
      vertex 0 0 2
    endloop
  endfacet
  facet normal -0.352106 0.931348 -0.0928044
    outer loop
      vertex -0.172712 0 1.30333
      vertex -0.883333 -0.375278 0.233333
      vertex -0.233333 0 1.53333
    endloop
  endfacet
  facet normal -0.397737 0.915726 -0.0570205
    outer loop
      vertex -0.883333 -0.375278 0.233333
      vertex -0.172712 0 1.30333
      vertex -0.653837 -0.277778 0.198333
    endloop
  endfacet
  facet normal 0.916861 -8.44099e-06 -0.399206
    outer loop
      vertex -0.740192 -0.42735 0
      vertex -0.172712 0 1.30333
      vertex -1.24127e-17 0 1.7
    endloop
  endfacet
  facet normal 0.916859 7.8942e-06 -0.39921
    outer loop
      vertex -0.172712 0 1.30333
      vertex -0.740192 -0.42735 0
      vertex -0.653837 -0.277778 0.198333
    endloop
  endfacet
  facet normal -0.447213 -0.774597 0.447213
    outer loop
      vertex 0 -1.1547 0
      vertex -0.766667 -0.57735 0.233333
      vertex -1 -0.57735 0
    endloop
  endfacet
  facet normal -0.447214 -0.774597 0.447212
    outer loop
      vertex -0.766667 -0.57735 0.233333
      vertex 0 -1.1547 0
      vertex -0.116667 -0.952628 0.233333
    endloop
  endfacet
  facet normal 0.0753822 0.130566 0.98857
    outer loop
      vertex -0.567481 -0.42735 0.198333
      vertex -0.116667 -0.952628 0.233333
      vertex -0.0863558 -0.705128 0.198333
    endloop
  endfacet
  facet normal 0.0753822 0.130566 0.98857
    outer loop
      vertex -0.116667 -0.952628 0.233333
      vertex -0.567481 -0.42735 0.198333
      vertex -0.766667 -0.57735 0.233333
    endloop
  endfacet
  facet normal 0.45843 0.794024 -0.399209
    outer loop
      vertex 0 -0.854701 0
      vertex -0.567481 -0.42735 0.198333
      vertex -0.0863558 -0.705128 0.198333
    endloop
  endfacet
  facet normal 0.458431 0.794024 -0.399208
    outer loop
      vertex -0.567481 -0.42735 0.198333
      vertex 0 -0.854701 0
      vertex -0.740192 -0.42735 0
    endloop
  endfacet
  facet normal -0.447208 -0.774601 0.447212
    outer loop
      vertex -1 -0.57735 0
      vertex -0.116667 -0.202073 1.53333
      vertex 0 0 2
    endloop
  endfacet
  facet normal -0.447214 -0.774596 0.447214
    outer loop
      vertex -0.116667 -0.202073 1.53333
      vertex -1 -0.57735 0
      vertex -0.766667 -0.57735 0.233333
    endloop
  endfacet
  facet normal 0.630518 -0.770606 -0.0928047
    outer loop
      vertex -0.766667 -0.57735 0.233333
      vertex -0.0863558 -0.149573 1.30333
      vertex -0.116667 -0.202073 1.53333
    endloop
  endfacet
  facet normal 0.594174 -0.802313 -0.0570211
    outer loop
      vertex -0.0863558 -0.149573 1.30333
      vertex -0.766667 -0.57735 0.233333
      vertex -0.567481 -0.42735 0.198333
    endloop
  endfacet
  facet normal 0.458432 0.794023 -0.399209
    outer loop
      vertex -0.740192 -0.42735 0
      vertex -0.0863558 -0.149573 1.30333
      vertex -0.567481 -0.42735 0.198333
    endloop
  endfacet
  facet normal 0.458423 0.79403 -0.399206
    outer loop
      vertex -0.0863558 -0.149573 1.30333
      vertex -0.740192 -0.42735 0
      vertex -1.24127e-17 0 1.7
    endloop
  endfacet
  facet normal -0.447209 -0.774598 0.447215
    outer loop
      vertex 0 -1.1547 0
      vertex -0.116667 -0.202073 1.53333
      vertex -0.116667 -0.952628 0.233333
    endloop
  endfacet
  facet normal -0.44722 -0.774594 0.447212
    outer loop
      vertex -0.116667 -0.202073 1.53333
      vertex 0 -1.1547 0
      vertex 0 0 2
    endloop
  endfacet
  facet normal -0.99191 0.113415 -0.0570213
    outer loop
      vertex -0.116667 -0.952628 0.233333
      vertex -0.0863558 -0.149573 1.30333
      vertex -0.0863558 -0.705128 0.198333
    endloop
  endfacet
  facet normal -0.982623 0.160745 -0.0928061
    outer loop
      vertex -0.0863558 -0.149573 1.30333
      vertex -0.116667 -0.952628 0.233333
      vertex -0.116667 -0.202073 1.53333
    endloop
  endfacet
  facet normal 0.45844 0.79402 -0.399206
    outer loop
      vertex 0 -0.854701 0
      vertex -0.0863558 -0.149573 1.30333
      vertex -1.24127e-17 0 1.7
    endloop
  endfacet
  facet normal 0.458433 0.794023 -0.399208
    outer loop
      vertex -0.0863558 -0.149573 1.30333
      vertex 0 -0.854701 0
      vertex -0.0863558 -0.705128 0.198333
    endloop
  endfacet
  facet normal 0.447214 -0.774597 0.447212
    outer loop
      vertex 0 -1.1547 0
      vertex 0.766667 -0.57735 0.233333
      vertex 0.116667 -0.952628 0.233333
    endloop
  endfacet
  facet normal 0.447213 -0.774597 0.447213
    outer loop
      vertex 0.766667 -0.57735 0.233333
      vertex 0 -1.1547 0
      vertex 1 -0.57735 0
    endloop
  endfacet
  facet normal -0.0753822 0.130566 0.98857
    outer loop
      vertex 0.567481 -0.42735 0.198333
      vertex 0.116667 -0.952628 0.233333
      vertex 0.766667 -0.57735 0.233333
    endloop
  endfacet
  facet normal -0.0753822 0.130566 0.98857
    outer loop
      vertex 0.116667 -0.952628 0.233333
      vertex 0.567481 -0.42735 0.198333
      vertex 0.0863558 -0.705128 0.198333
    endloop
  endfacet
  facet normal -0.458431 0.794024 -0.399208
    outer loop
      vertex 0 -0.854701 0
      vertex 0.567481 -0.42735 0.198333
      vertex 0.740192 -0.42735 0
    endloop
  endfacet
  facet normal -0.45843 0.794024 -0.399209
    outer loop
      vertex 0.567481 -0.42735 0.198333
      vertex 0 -0.854701 0
      vertex 0.0863558 -0.705128 0.198333
    endloop
  endfacet
  facet normal 0.44722 -0.774594 0.447212
    outer loop
      vertex 0 -1.1547 0
      vertex 0.116667 -0.202073 1.53333
      vertex 0 0 2
    endloop
  endfacet
  facet normal 0.447209 -0.774598 0.447215
    outer loop
      vertex 0.116667 -0.202073 1.53333
      vertex 0 -1.1547 0
      vertex 0.116667 -0.952628 0.233333
    endloop
  endfacet
  facet normal 0.982623 0.160745 -0.0928061
    outer loop
      vertex 0.116667 -0.952628 0.233333
      vertex 0.0863558 -0.149573 1.30333
      vertex 0.116667 -0.202073 1.53333
    endloop
  endfacet
  facet normal 0.99191 0.113415 -0.0570213
    outer loop
      vertex 0.0863558 -0.149573 1.30333
      vertex 0.116667 -0.952628 0.233333
      vertex 0.0863558 -0.705128 0.198333
    endloop
  endfacet
  facet normal -0.458433 0.794023 -0.399208
    outer loop
      vertex 0 -0.854701 0
      vertex 0.0863558 -0.149573 1.30333
      vertex 0.0863558 -0.705128 0.198333
    endloop
  endfacet
  facet normal -0.45844 0.79402 -0.399206
    outer loop
      vertex 0.0863558 -0.149573 1.30333
      vertex 0 -0.854701 0
      vertex -1.24127e-17 0 1.7
    endloop
  endfacet
  facet normal 0.447214 -0.774596 0.447214
    outer loop
      vertex 1 -0.57735 0
      vertex 0.116667 -0.202073 1.53333
      vertex 0.766667 -0.57735 0.233333
    endloop
  endfacet
  facet normal 0.447208 -0.774601 0.447212
    outer loop
      vertex 0.116667 -0.202073 1.53333
      vertex 1 -0.57735 0
      vertex 0 0 2
    endloop
  endfacet
  facet normal -0.630518 -0.770606 -0.0928047
    outer loop
      vertex 0.0863558 -0.149573 1.30333
      vertex 0.766667 -0.57735 0.233333
      vertex 0.116667 -0.202073 1.53333
    endloop
  endfacet
  facet normal -0.594174 -0.802313 -0.0570211
    outer loop
      vertex 0.766667 -0.57735 0.233333
      vertex 0.0863558 -0.149573 1.30333
      vertex 0.567481 -0.42735 0.198333
    endloop
  endfacet
  facet normal -0.458423 0.79403 -0.399206
    outer loop
      vertex 0.740192 -0.42735 0
      vertex 0.0863558 -0.149573 1.30333
      vertex -1.24127e-17 0 1.7
    endloop
  endfacet
  facet normal -0.458432 0.794023 -0.399209
    outer loop
      vertex 0.0863558 -0.149573 1.30333
      vertex 0.740192 -0.42735 0
      vertex 0.567481 -0.42735 0.198333
    endloop
  endfacet
  facet normal 0.894426 -0 0.447215
    outer loop
      vertex 0.883333 -0.375278 0.233333
      vertex 1 0.57735 0
      vertex 0.883333 0.375278 0.233333
    endloop
  endfacet
  facet normal 0.894426 0 0.447215
    outer loop
      vertex 1 0.57735 0
      vertex 0.883333 -0.375278 0.233333
      vertex 1 -0.57735 0
    endloop
  endfacet
  facet normal -0.150765 0 0.98857
    outer loop
      vertex 0.653837 0.277778 0.198333
      vertex 0.883333 -0.375278 0.233333
      vertex 0.883333 0.375278 0.233333
    endloop
  endfacet
  facet normal -0.150765 0 0.98857
    outer loop
      vertex 0.883333 -0.375278 0.233333
      vertex 0.653837 0.277778 0.198333
      vertex 0.653837 -0.277778 0.198333
    endloop
  endfacet
  facet normal -0.916862 0 -0.399205
    outer loop
      vertex 0.740192 0.42735 0
      vertex 0.653837 -0.277778 0.198333
      vertex 0.653837 0.277778 0.198333
    endloop
  endfacet
  facet normal -0.916862 0 -0.399205
    outer loop
      vertex 0.653837 -0.277778 0.198333
      vertex 0.740192 0.42735 0
      vertex 0.740192 -0.42735 0
    endloop
  endfacet
  facet normal 0.894429 1.32787e-05 0.447211
    outer loop
      vertex 1 -0.57735 0
      vertex 0.233333 0 1.53333
      vertex 0 0 2
    endloop
  endfacet
  facet normal 0.894427 1.53218e-06 0.447214
    outer loop
      vertex 0.233333 0 1.53333
      vertex 1 -0.57735 0
      vertex 0.883333 -0.375278 0.233333
    endloop
  endfacet
  facet normal 0.352106 0.931348 -0.0928044
    outer loop
      vertex 0.883333 -0.375278 0.233333
      vertex 0.172712 0 1.30333
      vertex 0.233333 0 1.53333
    endloop
  endfacet
  facet normal 0.397737 0.915726 -0.0570205
    outer loop
      vertex 0.172712 0 1.30333
      vertex 0.883333 -0.375278 0.233333
      vertex 0.653837 -0.277778 0.198333
    endloop
  endfacet
  facet normal -0.916859 7.8942e-06 -0.39921
    outer loop
      vertex 0.740192 -0.42735 0
      vertex 0.172712 0 1.30333
      vertex 0.653837 -0.277778 0.198333
    endloop
  endfacet
  facet normal -0.916861 -8.44099e-06 -0.399206
    outer loop
      vertex 0.172712 0 1.30333
      vertex 0.740192 -0.42735 0
      vertex -1.24127e-17 0 1.7
    endloop
  endfacet
  facet normal 0.894429 -1.32787e-05 0.447211
    outer loop
      vertex 0.233333 0 1.53333
      vertex 1 0.57735 0
      vertex 0 0 2
    endloop
  endfacet
  facet normal 0.894427 -1.53218e-06 0.447214
    outer loop
      vertex 1 0.57735 0
      vertex 0.233333 0 1.53333
      vertex 0.883333 0.375278 0.233333
    endloop
  endfacet
  facet normal 0.352106 -0.931348 -0.0928044
    outer loop
      vertex 0.172712 0 1.30333
      vertex 0.883333 0.375278 0.233333
      vertex 0.233333 0 1.53333
    endloop
  endfacet
  facet normal 0.397737 -0.915726 -0.0570205
    outer loop
      vertex 0.883333 0.375278 0.233333
      vertex 0.172712 0 1.30333
      vertex 0.653837 0.277778 0.198333
    endloop
  endfacet
  facet normal -0.916859 -7.8942e-06 -0.39921
    outer loop
      vertex 0.172712 0 1.30333
      vertex 0.740192 0.42735 0
      vertex 0.653837 0.277778 0.198333
    endloop
  endfacet
  facet normal -0.916861 8.44099e-06 -0.399206
    outer loop
      vertex 0.740192 0.42735 0
      vertex 0.172712 0 1.30333
      vertex -1.24127e-17 0 1.7
    endloop
  endfacet
  facet normal 0.894426 0 -0.447215
    outer loop
      vertex 1 0.57735 0
      vertex 0.883333 -0.375278 -0.233333
      vertex 0.883333 0.375278 -0.233333
    endloop
  endfacet
  facet normal 0.894426 0 -0.447215
    outer loop
      vertex 0.883333 -0.375278 -0.233333
      vertex 1 0.57735 0
      vertex 1 -0.57735 0
    endloop
  endfacet
  facet normal -0.150765 0 -0.98857
    outer loop
      vertex 0.653837 -0.277778 -0.198333
      vertex 0.883333 0.375278 -0.233333
      vertex 0.883333 -0.375278 -0.233333
    endloop
  endfacet
  facet normal -0.150765 0 -0.98857
    outer loop
      vertex 0.883333 0.375278 -0.233333
      vertex 0.653837 -0.277778 -0.198333
      vertex 0.653837 0.277778 -0.198333
    endloop
  endfacet
  facet normal -0.916862 0 0.399205
    outer loop
      vertex 0.653837 -0.277778 -0.198333
      vertex 0.740192 0.42735 0
      vertex 0.653837 0.277778 -0.198333
    endloop
  endfacet
  facet normal -0.916862 0 0.399205
    outer loop
      vertex 0.740192 0.42735 0
      vertex 0.653837 -0.277778 -0.198333
      vertex 0.740192 -0.42735 0
    endloop
  endfacet
  facet normal 0.894427 -1.53218e-06 -0.447214
    outer loop
      vertex 0.233333 0 -1.53333
      vertex 1 0.57735 0
      vertex 0.883333 0.375278 -0.233333
    endloop
  endfacet
  facet normal 0.894429 -1.32787e-05 -0.447211
    outer loop
      vertex 1 0.57735 0
      vertex 0.233333 0 -1.53333
      vertex 0 0 -2
    endloop
  endfacet
  facet normal 0.397737 -0.915726 0.0570205
    outer loop
      vertex 0.172712 0 -1.30333
      vertex 0.883333 0.375278 -0.233333
      vertex 0.653837 0.277778 -0.198333
    endloop
  endfacet
  facet normal 0.352106 -0.931348 0.0928044
    outer loop
      vertex 0.883333 0.375278 -0.233333
      vertex 0.172712 0 -1.30333
      vertex 0.233333 0 -1.53333
    endloop
  endfacet
  facet normal -0.916861 8.44099e-06 0.399206
    outer loop
      vertex 0.172712 0 -1.30333
      vertex 0.740192 0.42735 0
      vertex 1.24127e-17 0 -1.7
    endloop
  endfacet
  facet normal -0.916859 -7.8942e-06 0.39921
    outer loop
      vertex 0.740192 0.42735 0
      vertex 0.172712 0 -1.30333
      vertex 0.653837 0.277778 -0.198333
    endloop
  endfacet
  facet normal 0.894427 1.53218e-06 -0.447214
    outer loop
      vertex 1 -0.57735 0
      vertex 0.233333 0 -1.53333
      vertex 0.883333 -0.375278 -0.233333
    endloop
  endfacet
  facet normal 0.894429 1.32787e-05 -0.447211
    outer loop
      vertex 0.233333 0 -1.53333
      vertex 1 -0.57735 0
      vertex 0 0 -2
    endloop
  endfacet
  facet normal 0.397737 0.915726 0.0570205
    outer loop
      vertex 0.883333 -0.375278 -0.233333
      vertex 0.172712 0 -1.30333
      vertex 0.653837 -0.277778 -0.198333
    endloop
  endfacet
  facet normal 0.352106 0.931348 0.0928044
    outer loop
      vertex 0.172712 0 -1.30333
      vertex 0.883333 -0.375278 -0.233333
      vertex 0.233333 0 -1.53333
    endloop
  endfacet
  facet normal -0.916861 -8.44099e-06 0.399206
    outer loop
      vertex 0.740192 -0.42735 0
      vertex 0.172712 0 -1.30333
      vertex 1.24127e-17 0 -1.7
    endloop
  endfacet
  facet normal -0.916859 7.8942e-06 0.39921
    outer loop
      vertex 0.172712 0 -1.30333
      vertex 0.740192 -0.42735 0
      vertex 0.653837 -0.277778 -0.198333
    endloop
  endfacet
  facet normal 0.447214 -0.774597 -0.447212
    outer loop
      vertex 0.766667 -0.57735 -0.233333
      vertex 0 -1.1547 0
      vertex 0.116667 -0.952628 -0.233333
    endloop
  endfacet
  facet normal 0.447213 -0.774597 -0.447213
    outer loop
      vertex 0 -1.1547 0
      vertex 0.766667 -0.57735 -0.233333
      vertex 1 -0.57735 0
    endloop
  endfacet
  facet normal -0.0753822 0.130566 -0.98857
    outer loop
      vertex 0.116667 -0.952628 -0.233333
      vertex 0.567481 -0.42735 -0.198333
      vertex 0.766667 -0.57735 -0.233333
    endloop
  endfacet
  facet normal -0.0753822 0.130566 -0.98857
    outer loop
      vertex 0.567481 -0.42735 -0.198333
      vertex 0.116667 -0.952628 -0.233333
      vertex 0.0863558 -0.705128 -0.198333
    endloop
  endfacet
  facet normal -0.458431 0.794024 0.399208
    outer loop
      vertex 0.567481 -0.42735 -0.198333
      vertex 0 -0.854701 0
      vertex 0.740192 -0.42735 0
    endloop
  endfacet
  facet normal -0.45843 0.794024 0.399209
    outer loop
      vertex 0 -0.854701 0
      vertex 0.567481 -0.42735 -0.198333
      vertex 0.0863558 -0.705128 -0.198333
    endloop
  endfacet
  facet normal 0.447214 -0.774596 -0.447214
    outer loop
      vertex 0.116667 -0.202073 -1.53333
      vertex 1 -0.57735 0
      vertex 0.766667 -0.57735 -0.233333
    endloop
  endfacet
  facet normal 0.447208 -0.774601 -0.447212
    outer loop
      vertex 1 -0.57735 0
      vertex 0.116667 -0.202073 -1.53333
      vertex 0 0 -2
    endloop
  endfacet
  facet normal -0.594174 -0.802313 0.0570211
    outer loop
      vertex 0.0863558 -0.149573 -1.30333
      vertex 0.766667 -0.57735 -0.233333
      vertex 0.567481 -0.42735 -0.198333
    endloop
  endfacet
  facet normal -0.630518 -0.770606 0.0928047
    outer loop
      vertex 0.766667 -0.57735 -0.233333
      vertex 0.0863558 -0.149573 -1.30333
      vertex 0.116667 -0.202073 -1.53333
    endloop
  endfacet
  facet normal -0.458432 0.794023 0.399209
    outer loop
      vertex 0.740192 -0.42735 0
      vertex 0.0863558 -0.149573 -1.30333
      vertex 0.567481 -0.42735 -0.198333
    endloop
  endfacet
  facet normal -0.458423 0.79403 0.399206
    outer loop
      vertex 0.0863558 -0.149573 -1.30333
      vertex 0.740192 -0.42735 0
      vertex 1.24127e-17 0 -1.7
    endloop
  endfacet
  facet normal 0.447209 -0.774598 -0.447215
    outer loop
      vertex 0 -1.1547 0
      vertex 0.116667 -0.202073 -1.53333
      vertex 0.116667 -0.952628 -0.233333
    endloop
  endfacet
  facet normal 0.44722 -0.774594 -0.447212
    outer loop
      vertex 0.116667 -0.202073 -1.53333
      vertex 0 -1.1547 0
      vertex 0 0 -2
    endloop
  endfacet
  facet normal 0.99191 0.113415 0.0570213
    outer loop
      vertex 0.116667 -0.952628 -0.233333
      vertex 0.0863558 -0.149573 -1.30333
      vertex 0.0863558 -0.705128 -0.198333
    endloop
  endfacet
  facet normal 0.982623 0.160745 0.0928061
    outer loop
      vertex 0.0863558 -0.149573 -1.30333
      vertex 0.116667 -0.952628 -0.233333
      vertex 0.116667 -0.202073 -1.53333
    endloop
  endfacet
  facet normal -0.458433 0.794023 0.399208
    outer loop
      vertex 0.0863558 -0.149573 -1.30333
      vertex 0 -0.854701 0
      vertex 0.0863558 -0.705128 -0.198333
    endloop
  endfacet
  facet normal -0.45844 0.79402 0.399206
    outer loop
      vertex 0 -0.854701 0
      vertex 0.0863558 -0.149573 -1.30333
      vertex 1.24127e-17 0 -1.7
    endloop
  endfacet
  facet normal -0.447213 -0.774597 -0.447213
    outer loop
      vertex -0.766667 -0.57735 -0.233333
      vertex 0 -1.1547 0
      vertex -1 -0.57735 0
    endloop
  endfacet
  facet normal -0.447214 -0.774597 -0.447212
    outer loop
      vertex 0 -1.1547 0
      vertex -0.766667 -0.57735 -0.233333
      vertex -0.116667 -0.952628 -0.233333
    endloop
  endfacet
  facet normal 0.0753822 0.130566 -0.98857
    outer loop
      vertex -0.116667 -0.952628 -0.233333
      vertex -0.567481 -0.42735 -0.198333
      vertex -0.0863558 -0.705128 -0.198333
    endloop
  endfacet
  facet normal 0.0753822 0.130566 -0.98857
    outer loop
      vertex -0.567481 -0.42735 -0.198333
      vertex -0.116667 -0.952628 -0.233333
      vertex -0.766667 -0.57735 -0.233333
    endloop
  endfacet
  facet normal 0.45843 0.794024 0.399209
    outer loop
      vertex -0.567481 -0.42735 -0.198333
      vertex 0 -0.854701 0
      vertex -0.0863558 -0.705128 -0.198333
    endloop
  endfacet
  facet normal 0.458431 0.794024 0.399208
    outer loop
      vertex 0 -0.854701 0
      vertex -0.567481 -0.42735 -0.198333
      vertex -0.740192 -0.42735 0
    endloop
  endfacet
  facet normal -0.447209 -0.774598 -0.447215
    outer loop
      vertex -0.116667 -0.202073 -1.53333
      vertex 0 -1.1547 0
      vertex -0.116667 -0.952628 -0.233333
    endloop
  endfacet
  facet normal -0.44722 -0.774594 -0.447212
    outer loop
      vertex 0 -1.1547 0
      vertex -0.116667 -0.202073 -1.53333
      vertex 0 0 -2
    endloop
  endfacet
  facet normal -0.982623 0.160745 0.0928061
    outer loop
      vertex -0.116667 -0.952628 -0.233333
      vertex -0.0863558 -0.149573 -1.30333
      vertex -0.116667 -0.202073 -1.53333
    endloop
  endfacet
  facet normal -0.99191 0.113415 0.0570213
    outer loop
      vertex -0.0863558 -0.149573 -1.30333
      vertex -0.116667 -0.952628 -0.233333
      vertex -0.0863558 -0.705128 -0.198333
    endloop
  endfacet
  facet normal 0.458433 0.794023 0.399208
    outer loop
      vertex 0 -0.854701 0
      vertex -0.0863558 -0.149573 -1.30333
      vertex -0.0863558 -0.705128 -0.198333
    endloop
  endfacet
  facet normal 0.45844 0.79402 0.399206
    outer loop
      vertex -0.0863558 -0.149573 -1.30333
      vertex 0 -0.854701 0
      vertex 1.24127e-17 0 -1.7
    endloop
  endfacet
  facet normal -0.447214 -0.774596 -0.447214
    outer loop
      vertex -1 -0.57735 0
      vertex -0.116667 -0.202073 -1.53333
      vertex -0.766667 -0.57735 -0.233333
    endloop
  endfacet
  facet normal -0.447208 -0.774601 -0.447212
    outer loop
      vertex -0.116667 -0.202073 -1.53333
      vertex -1 -0.57735 0
      vertex 0 0 -2
    endloop
  endfacet
  facet normal 0.594174 -0.802313 0.0570211
    outer loop
      vertex -0.766667 -0.57735 -0.233333
      vertex -0.0863558 -0.149573 -1.30333
      vertex -0.567481 -0.42735 -0.198333
    endloop
  endfacet
  facet normal 0.630518 -0.770606 0.0928047
    outer loop
      vertex -0.0863558 -0.149573 -1.30333
      vertex -0.766667 -0.57735 -0.233333
      vertex -0.116667 -0.202073 -1.53333
    endloop
  endfacet
  facet normal 0.458432 0.794023 0.399209
    outer loop
      vertex -0.0863558 -0.149573 -1.30333
      vertex -0.740192 -0.42735 0
      vertex -0.567481 -0.42735 -0.198333
    endloop
  endfacet
  facet normal 0.458423 0.79403 0.399206
    outer loop
      vertex -0.740192 -0.42735 0
      vertex -0.0863558 -0.149573 -1.30333
      vertex 1.24127e-17 0 -1.7
    endloop
  endfacet
  facet normal -0.894426 0 -0.447215
    outer loop
      vertex -0.883333 -0.375278 -0.233333
      vertex -1 0.57735 0
      vertex -0.883333 0.375278 -0.233333
    endloop
  endfacet
  facet normal -0.894426 -0 -0.447215
    outer loop
      vertex -1 0.57735 0
      vertex -0.883333 -0.375278 -0.233333
      vertex -1 -0.57735 0
    endloop
  endfacet
  facet normal 0.150765 0 -0.98857
    outer loop
      vertex -0.883333 -0.375278 -0.233333
      vertex -0.653837 0.277778 -0.198333
      vertex -0.653837 -0.277778 -0.198333
    endloop
  endfacet
  facet normal 0.150765 0 -0.98857
    outer loop
      vertex -0.653837 0.277778 -0.198333
      vertex -0.883333 -0.375278 -0.233333
      vertex -0.883333 0.375278 -0.233333
    endloop
  endfacet
  facet normal 0.916862 0 0.399205
    outer loop
      vertex -0.740192 0.42735 0
      vertex -0.653837 -0.277778 -0.198333
      vertex -0.653837 0.277778 -0.198333
    endloop
  endfacet
  facet normal 0.916862 0 0.399205
    outer loop
      vertex -0.653837 -0.277778 -0.198333
      vertex -0.740192 0.42735 0
      vertex -0.740192 -0.42735 0
    endloop
  endfacet
  facet normal -0.894429 1.32787e-05 -0.447211
    outer loop
      vertex -1 -0.57735 0
      vertex -0.233333 0 -1.53333
      vertex 0 0 -2
    endloop
  endfacet
  facet normal -0.894427 1.53218e-06 -0.447214
    outer loop
      vertex -0.233333 0 -1.53333
      vertex -1 -0.57735 0
      vertex -0.883333 -0.375278 -0.233333
    endloop
  endfacet
  facet normal -0.397737 0.915726 0.0570205
    outer loop
      vertex -0.172712 0 -1.30333
      vertex -0.883333 -0.375278 -0.233333
      vertex -0.653837 -0.277778 -0.198333
    endloop
  endfacet
  facet normal -0.352106 0.931348 0.0928044
    outer loop
      vertex -0.883333 -0.375278 -0.233333
      vertex -0.172712 0 -1.30333
      vertex -0.233333 0 -1.53333
    endloop
  endfacet
  facet normal 0.916859 7.8942e-06 0.39921
    outer loop
      vertex -0.740192 -0.42735 0
      vertex -0.172712 0 -1.30333
      vertex -0.653837 -0.277778 -0.198333
    endloop
  endfacet
  facet normal 0.916861 -8.44099e-06 0.399206
    outer loop
      vertex -0.172712 0 -1.30333
      vertex -0.740192 -0.42735 0
      vertex 1.24127e-17 0 -1.7
    endloop
  endfacet
  facet normal -0.894429 -1.32787e-05 -0.447211
    outer loop
      vertex -0.233333 0 -1.53333
      vertex -1 0.57735 0
      vertex 0 0 -2
    endloop
  endfacet
  facet normal -0.894427 -1.53218e-06 -0.447214
    outer loop
      vertex -1 0.57735 0
      vertex -0.233333 0 -1.53333
      vertex -0.883333 0.375278 -0.233333
    endloop
  endfacet
  facet normal -0.397737 -0.915726 0.0570205
    outer loop
      vertex -0.883333 0.375278 -0.233333
      vertex -0.172712 0 -1.30333
      vertex -0.653837 0.277778 -0.198333
    endloop
  endfacet
  facet normal -0.352106 -0.931348 0.0928044
    outer loop
      vertex -0.172712 0 -1.30333
      vertex -0.883333 0.375278 -0.233333
      vertex -0.233333 0 -1.53333
    endloop
  endfacet
  facet normal 0.916859 -7.8942e-06 0.39921
    outer loop
      vertex -0.172712 0 -1.30333
      vertex -0.740192 0.42735 0
      vertex -0.653837 0.277778 -0.198333
    endloop
  endfacet
  facet normal 0.916861 8.44099e-06 0.399206
    outer loop
      vertex -0.740192 0.42735 0
      vertex -0.172712 0 -1.30333
      vertex 1.24127e-17 0 -1.7
    endloop
  endfacet
  facet normal -0.447214 0.774597 -0.447212
    outer loop
      vertex -0.766667 0.57735 -0.233333
      vertex 0 1.1547 0
      vertex -0.116667 0.952628 -0.233333
    endloop
  endfacet
  facet normal -0.447213 0.774597 -0.447213
    outer loop
      vertex 0 1.1547 0
      vertex -0.766667 0.57735 -0.233333
      vertex -1 0.57735 0
    endloop
  endfacet
  facet normal 0.0753822 -0.130566 -0.98857
    outer loop
      vertex -0.567481 0.42735 -0.198333
      vertex -0.116667 0.952628 -0.233333
      vertex -0.0863558 0.705128 -0.198333
    endloop
  endfacet
  facet normal 0.0753822 -0.130566 -0.98857
    outer loop
      vertex -0.116667 0.952628 -0.233333
      vertex -0.567481 0.42735 -0.198333
      vertex -0.766667 0.57735 -0.233333
    endloop
  endfacet
  facet normal 0.458431 -0.794024 0.399208
    outer loop
      vertex -0.567481 0.42735 -0.198333
      vertex 0 0.854701 0
      vertex -0.740192 0.42735 0
    endloop
  endfacet
  facet normal 0.45843 -0.794024 0.399209
    outer loop
      vertex 0 0.854701 0
      vertex -0.567481 0.42735 -0.198333
      vertex -0.0863558 0.705128 -0.198333
    endloop
  endfacet
  facet normal -0.447214 0.774596 -0.447214
    outer loop
      vertex -0.116667 0.202073 -1.53333
      vertex -1 0.57735 0
      vertex -0.766667 0.57735 -0.233333
    endloop
  endfacet
  facet normal -0.447208 0.774601 -0.447212
    outer loop
      vertex -1 0.57735 0
      vertex -0.116667 0.202073 -1.53333
      vertex 0 0 -2
    endloop
  endfacet
  facet normal 0.594174 0.802313 0.0570211
    outer loop
      vertex -0.0863558 0.149573 -1.30333
      vertex -0.766667 0.57735 -0.233333
      vertex -0.567481 0.42735 -0.198333
    endloop
  endfacet
  facet normal 0.630518 0.770606 0.0928047
    outer loop
      vertex -0.766667 0.57735 -0.233333
      vertex -0.0863558 0.149573 -1.30333
      vertex -0.116667 0.202073 -1.53333
    endloop
  endfacet
  facet normal 0.458432 -0.794023 0.399209
    outer loop
      vertex -0.740192 0.42735 0
      vertex -0.0863558 0.149573 -1.30333
      vertex -0.567481 0.42735 -0.198333
    endloop
  endfacet
  facet normal 0.458423 -0.79403 0.399206
    outer loop
      vertex -0.0863558 0.149573 -1.30333
      vertex -0.740192 0.42735 0
      vertex 1.24127e-17 0 -1.7
    endloop
  endfacet
  facet normal -0.447209 0.774598 -0.447215
    outer loop
      vertex 0 1.1547 0
      vertex -0.116667 0.202073 -1.53333
      vertex -0.116667 0.952628 -0.233333
    endloop
  endfacet
  facet normal -0.44722 0.774594 -0.447212
    outer loop
      vertex -0.116667 0.202073 -1.53333
      vertex 0 1.1547 0
      vertex 0 0 -2
    endloop
  endfacet
  facet normal -0.982623 -0.160745 0.0928061
    outer loop
      vertex -0.0863558 0.149573 -1.30333
      vertex -0.116667 0.952628 -0.233333
      vertex -0.116667 0.202073 -1.53333
    endloop
  endfacet
  facet normal -0.99191 -0.113415 0.0570213
    outer loop
      vertex -0.116667 0.952628 -0.233333
      vertex -0.0863558 0.149573 -1.30333
      vertex -0.0863558 0.705128 -0.198333
    endloop
  endfacet
  facet normal 0.458433 -0.794023 0.399208
    outer loop
      vertex -0.0863558 0.149573 -1.30333
      vertex 0 0.854701 0
      vertex -0.0863558 0.705128 -0.198333
    endloop
  endfacet
  facet normal 0.45844 -0.79402 0.399206
    outer loop
      vertex 0 0.854701 0
      vertex -0.0863558 0.149573 -1.30333
      vertex 1.24127e-17 0 -1.7
    endloop
  endfacet
  facet normal 0.447213 0.774597 -0.447213
    outer loop
      vertex 0.766667 0.57735 -0.233333
      vertex 0 1.1547 0
      vertex 1 0.57735 0
    endloop
  endfacet
  facet normal 0.447214 0.774597 -0.447212
    outer loop
      vertex 0 1.1547 0
      vertex 0.766667 0.57735 -0.233333
      vertex 0.116667 0.952628 -0.233333
    endloop
  endfacet
  facet normal -0.0753822 -0.130566 -0.98857
    outer loop
      vertex 0.567481 0.42735 -0.198333
      vertex 0.116667 0.952628 -0.233333
      vertex 0.766667 0.57735 -0.233333
    endloop
  endfacet
  facet normal -0.0753822 -0.130566 -0.98857
    outer loop
      vertex 0.116667 0.952628 -0.233333
      vertex 0.567481 0.42735 -0.198333
      vertex 0.0863558 0.705128 -0.198333
    endloop
  endfacet
  facet normal -0.45843 -0.794024 0.399209
    outer loop
      vertex 0.567481 0.42735 -0.198333
      vertex 0 0.854701 0
      vertex 0.0863558 0.705128 -0.198333
    endloop
  endfacet
  facet normal -0.458431 -0.794024 0.399208
    outer loop
      vertex 0 0.854701 0
      vertex 0.567481 0.42735 -0.198333
      vertex 0.740192 0.42735 0
    endloop
  endfacet
  facet normal 0.447209 0.774598 -0.447215
    outer loop
      vertex 0.116667 0.202073 -1.53333
      vertex 0 1.1547 0
      vertex 0.116667 0.952628 -0.233333
    endloop
  endfacet
  facet normal 0.44722 0.774594 -0.447212
    outer loop
      vertex 0 1.1547 0
      vertex 0.116667 0.202073 -1.53333
      vertex 0 0 -2
    endloop
  endfacet
  facet normal 0.99191 -0.113415 0.0570213
    outer loop
      vertex 0.0863558 0.149573 -1.30333
      vertex 0.116667 0.952628 -0.233333
      vertex 0.0863558 0.705128 -0.198333
    endloop
  endfacet
  facet normal 0.982623 -0.160745 0.0928061
    outer loop
      vertex 0.116667 0.952628 -0.233333
      vertex 0.0863558 0.149573 -1.30333
      vertex 0.116667 0.202073 -1.53333
    endloop
  endfacet
  facet normal -0.458433 -0.794023 0.399208
    outer loop
      vertex 0 0.854701 0
      vertex 0.0863558 0.149573 -1.30333
      vertex 0.0863558 0.705128 -0.198333
    endloop
  endfacet
  facet normal -0.45844 -0.79402 0.399206
    outer loop
      vertex 0.0863558 0.149573 -1.30333
      vertex 0 0.854701 0
      vertex 1.24127e-17 0 -1.7
    endloop
  endfacet
  facet normal 0.447214 0.774596 -0.447214
    outer loop
      vertex 1 0.57735 0
      vertex 0.116667 0.202073 -1.53333
      vertex 0.766667 0.57735 -0.233333
    endloop
  endfacet
  facet normal 0.447208 0.774601 -0.447212
    outer loop
      vertex 0.116667 0.202073 -1.53333
      vertex 1 0.57735 0
      vertex 0 0 -2
    endloop
  endfacet
  facet normal -0.594174 0.802313 0.0570211
    outer loop
      vertex 0.766667 0.57735 -0.233333
      vertex 0.0863558 0.149573 -1.30333
      vertex 0.567481 0.42735 -0.198333
    endloop
  endfacet
  facet normal -0.630518 0.770606 0.0928047
    outer loop
      vertex 0.0863558 0.149573 -1.30333
      vertex 0.766667 0.57735 -0.233333
      vertex 0.116667 0.202073 -1.53333
    endloop
  endfacet
  facet normal -0.458432 -0.794023 0.399209
    outer loop
      vertex 0.0863558 0.149573 -1.30333
      vertex 0.740192 0.42735 0
      vertex 0.567481 0.42735 -0.198333
    endloop
  endfacet
  facet normal -0.458423 -0.79403 0.399206
    outer loop
      vertex 0.740192 0.42735 0
      vertex 0.0863558 0.149573 -1.30333
      vertex 1.24127e-17 0 -1.7
    endloop
  endfacet
endsolid OpenSCAD_Model
