999
Inkscape export via OpenSCAD DXF Export
  0
SECTION
  2
HEADER
  9
$ACADVER
  1
AC1014
  9
$HANDSEED
  5
FFFF
  9
$MEASUREMENT
 70
     1
  0
ENDSEC
  0
SECTION
  2
TABLES
  0
TABLE
  2
VPORT
  5
8
330
0
100
AcDbSymbolTable
 70
     4
  0
VPORT
  5
2E
330
8
100
AcDbSymbolTableRecord
100
AcDbViewportTableRecord
  2
*ACTIVE
 70
     0
 10
0.0
 20
0.0
 11
1.0
 21
1.0
 12
210.0
 22
148.5
 13
0.0
 23
0.0
 14
10.0
 24
10.0
 15
10.0
 25
10.0
 16
0.0
 26
0.0
 36
1.0
 17
0.0
 27
0.0
 37
0.0
 40
341.0
 41
1.24
 42
50.0
 43
0.0
 44
0.0
 50
0.0
 51
0.0
 71
     0
 72
   100
 73
     1
 74
     3
 75
     0
 76
     0
 77
     0
 78
     0
  0
ENDTAB
  0
TABLE
  2
LTYPE
  5
5
330
0
100
AcDbSymbolTable
 70
     1
  0
LTYPE
  5
14
330
5
100
AcDbSymbolTableRecord
100
AcDbLinetypeTableRecord
  2
BYBLOCK
 70
     0
  3

 72
    65
 73
     0
 40
0.0
  0
LTYPE
  5
15
330
5
100
AcDbSymbolTableRecord
100
AcDbLinetypeTableRecord
  2
BYLAYER
 70
     0
  3

 72
    65
 73
     0
 40
0.0
  0
LTYPE
  5
16
330
5
100
AcDbSymbolTableRecord
100
AcDbLinetypeTableRecord
  2
CONTINUOUS
 70
     0
  3
Solid line
 72
    65
 73
     0
 40
0.0
  0
ENDTAB
  0
TABLE
0
TABLE
2
LAYER
5
2
330
0
100
AcDbSymbolTable
70
1
0
LAYER
5
10
330
2
100
AcDbSymbolTableRecord
100
AcDbLayerTableRecord
2
Layer_1
70
0
62
7
6
CONTINUOUS
0
ENDTAB
0
ENDSEC
  0
ENDTAB
  0
TABLE
  2
STYLE
  5
3
330
0
100
AcDbSymbolTable
 70
     1
  0
STYLE
  5
11
330
3
100
AcDbSymbolTableRecord
100
AcDbTextStyleTableRecord
  2
STANDARD
 70
     0
 40
0.0
 41
1.0
 50
0.0
 71
     0
 42
2.5
  3
txt
  4

  0
ENDTAB
  0
TABLE
  2
VIEW
  5
6
330
0
100
AcDbSymbolTable
 70
     0
  0
ENDTAB
  0
TABLE
  2
UCS
  5
7
330
0
100
AcDbSymbolTable
 70
     0
  0
ENDTAB
  0
TABLE
  2
APPID
  5
9
330
0
100
AcDbSymbolTable
 70
     2
  0
APPID
  5
12
330
9
100
AcDbSymbolTableRecord
100
AcDbRegAppTableRecord
  2
ACAD
 70
     0
  0
ENDTAB
  0
TABLE
  2
DIMSTYLE
  5
A
330
0
100
AcDbSymbolTable
 70
     1
  0
DIMSTYLE
105
27
330
A
100
AcDbSymbolTableRecord
100
AcDbDimStyleTableRecord
  2
ISO-25
 70
     0
  3

  4

  5

  6

  7

 40
1.0
 41
2.5
 42
0.625
 43
3.75
 44
1.25
 45
0.0
 46
0.0
 47
0.0
 48
0.0
140
2.5
141
2.5
142
0.0
143
0.03937007874016
144
1.0
145
0.0
146
1.0
147
0.625
 71
     0
 72
     0
 73
     0
 74
     0
 75
     0
 76
     0
 77
     1
 78
     8
170
     0
171
     3
172
     1
173
     0
174
     0
175
     0
176
     0
177
     0
178
     0
270
     2
271
     2
272
     2
273
     2
274
     3
340
11
275
     0
280
     0
281
     0
282
     0
283
     0
284
     8
285
     0
286
     0
287
     3
288
     0
  0
ENDTAB
  0
TABLE
  2
BLOCK_RECORD
  5
1
330
0
100
AcDbSymbolTable
 70
     1
  0
BLOCK_RECORD
  5
1F
330
1
100
AcDbSymbolTableRecord
100
AcDbBlockTableRecord
  2
*MODEL_SPACE
  0
BLOCK_RECORD
  5
1B
330
1
100
AcDbSymbolTableRecord
100
AcDbBlockTableRecord
  2
*PAPER_SPACE
  0
ENDTAB
  0
ENDSEC
  0
SECTION
  2
BLOCKS
  0
BLOCK
  5
20
330
1F
100
AcDbEntity
  8
0
100
AcDbBlockBegin
  2
*MODEL_SPACE
 70
     0
 10
0.0
 20
0.0
 30
0.0
  3
*MODEL_SPACE
  1

  0
ENDBLK
  5
21
330
1F
100
AcDbEntity
  8
0
100
AcDbBlockEnd
  0
BLOCK
  5
1C
330
1B
100
AcDbEntity
 67
     1
  8
0
100
AcDbBlockBegin
  2
*PAPER_SPACE
  1

  0
ENDBLK
  5
1D
330
1B
100
AcDbEntity
 67
     1
  8
0
100
AcDbBlockEnd
  0
ENDSEC
  0
SECTION
  2
ENTITIES
0
DIMENSION
5
83
100
AcDbEntity
62
256
370
-1
6
ByLayer
1
total_width
3
Standard
70
0
71
5
72
1
41
1.0
100
AcDbAlignedDimension
13
-62.840091
23
0.000000
33
0.0
14
76.424423
24
0.000000
34
0.0
50
0.000000
100
AcDbRotatedDimension
0
DIMENSION
5
83
100
AcDbEntity
62
256
370
-1
6
ByLayer
1
total_minx
3
Standard
70
0
71
5
72
1
41
1.0
100
AcDbAlignedDimension
13
-62.840091
23
0.000000
33
0.0
14
0.000000
24
0.000000
34
0.0
50
0.000000
100
AcDbRotatedDimension
0
DIMENSION
5
83
100
AcDbEntity
62
256
370
-1
6
ByLayer
1
total_maxx
3
Standard
70
0
71
5
72
1
41
1.0
100
AcDbAlignedDimension
13
0.000000
23
0.000000
33
0.0
14
76.424423
24
0.000000
34
0.0
50
0.000000
100
AcDbRotatedDimension
0
DIMENSION
5
83
100
AcDbEntity
62
256
370
-1
6
ByLayer
1
total_height
3
Standard
70
0
71
5
72
1
41
1.0
100
AcDbAlignedDimension
13
0.000000
23
-13.447069
33
0.0
14
0.000000
24
24.167647
34
0.0
50
90.000000
100
AcDbRotatedDimension
0
DIMENSION
5
83
100
AcDbEntity
62
256
370
-1
6
ByLayer
1
total_miny
3
Standard
70
0
71
5
72
1
41
1.0
100
AcDbAlignedDimension
13
-13.447069
23
0.000000
33
0.0
14
0.000000
24
0.000000
34
0.0
50
0.000000
100
AcDbRotatedDimension
0
DIMENSION
5
83
100
AcDbEntity
62
256
370
-1
6
ByLayer
1
total_maxy
3
Standard
70
0
71
5
72
1
41
1.0
100
AcDbAlignedDimension
13
0.000000
23
0.000000
33
0.0
14
24.167647
24
0.000000
34
0.0
50
0.000000
100
AcDbRotatedDimension
0
DIMENSION
8
Layer_1
5
83
100
AcDbEntity
62
256
370
-1
6
ByLayer
1
Layer_1_width
3
Standard
70
0
71
5
72
1
41
1.0
100
AcDbAlignedDimension
13
-62.840091
23
0.000000
33
0.0
14
76.424423
24
0.000000
34
0.0
50
0.000000
100
AcDbRotatedDimension
0
DIMENSION
8
Layer_1
5
83
100
AcDbEntity
62
256
370
-1
6
ByLayer
1
Layer_1_minx
3
Standard
70
0
71
5
72
1
41
1.0
100
AcDbAlignedDimension
13
-62.840091
23
0.000000
33
0.0
14
0.000000
24
0.000000
34
0.0
50
0.000000
100
AcDbRotatedDimension
0
DIMENSION
8
Layer_1
5
83
100
AcDbEntity
62
256
370
-1
6
ByLayer
1
Layer_1_maxx
3
Standard
70
0
71
5
72
1
41
1.0
100
AcDbAlignedDimension
13
0.000000
23
0.000000
33
0.0
14
76.424423
24
0.000000
34
0.0
50
0.000000
100
AcDbRotatedDimension
0
DIMENSION
8
Layer_1
5
83
100
AcDbEntity
62
256
370
-1
6
ByLayer
1
Layer_1_height
3
Standard
70
0
71
5
72
1
41
1.0
100
AcDbAlignedDimension
13
0.000000
23
-13.447069
33
0.0
14
0.000000
24
24.167647
34
0.0
50
90.000000
100
AcDbRotatedDimension
0
DIMENSION
8
Layer_1
5
83
100
AcDbEntity
62
256
370
-1
6
ByLayer
1
Layer_1_miny
3
Standard
70
0
71
5
72
1
41
1.0
100
AcDbAlignedDimension
13
-13.447069
23
0.000000
33
0.0
14
0.000000
24
0.000000
34
0.0
50
0.000000
100
AcDbRotatedDimension
0
DIMENSION
8
Layer_1
5
83
100
AcDbEntity
62
256
370
-1
6
ByLayer
1
Layer_1_maxy
3
Standard
70
0
71
5
72
1
41
1.0
100
AcDbAlignedDimension
13
0.000000
23
0.000000
33
0.0
14
24.167647
24
0.000000
34
0.0
50
0.000000
100
AcDbRotatedDimension
62
0
0
LWPOLYLINE
100
AcDbPolyline
8
Layer_1
90
36
70
0
10
-55.751490
20
21.929709
30
0.0
10
-57.090942
20
21.990345
30
0.0
10
-58.430394
20
22.045466
30
0.0
10
-58.281567
20
19.807531
30
0.0
10
-58.165811
20
17.558573
30
0.0
10
-58.127228
20
17.001844
30
0.0
10
-58.088643
20
16.445118
30
0.0
10
-58.265032
20
15.700977
30
0.0
10
-58.539261
20
15.382650
30
0.0
10
-58.909952
20
15.276541
30
0.0
10
-59.444630
20
15.469468
30
0.0
10
-59.703702
20
16.009658
30
0.0
10
-59.676129
20
16.241168
30
0.0
10
-59.648556
20
16.483704
30
0.0
10
-59.687141
20
17.249892
30
0.0
10
-59.720215
20
18.021595
30
0.0
10
-59.835968
20
20.022505
30
0.0
10
-59.990310
20
22.023416
30
0.0
10
-60.276940
20
22.023416
30
0.0
10
-62.228245
20
22.199805
30
0.0
10
-62.687129
20
22.454743
30
0.0
10
-62.840091
20
22.921898
30
0.0
10
-62.641655
20
23.429015
30
0.0
10
-62.374316
20
23.624697
30
0.0
10
-62.035317
20
23.671551
30
0.0
10
-61.158885
20
23.577845
30
0.0
10
-60.276940
20
23.517209
30
0.0
10
-59.273731
20
23.528244
30
0.0
10
-58.265006
20
23.539279
30
0.0
10
-57.008234
20
23.478644
30
0.0
10
-55.751465
20
23.423523
30
0.0
10
-55.200248
20
23.208549
30
0.0
10
-54.974250
20
22.679382
30
0.0
10
-55.200248
20
22.144703
30
0.0
10
-55.751465
20
21.929729
30
0.0
10
-55.751490
20
21.929709
30
0.0
62
0
0
LWPOLYLINE
100
AcDbPolyline
8
Layer_1
90
45
70
0
10
-46.772192
20
22.965996
30
0.0
10
-46.882437
20
22.265952
30
0.0
10
-46.915507
20
21.786394
30
0.0
10
-46.943081
20
21.312348
30
0.0
10
-46.998201
20
19.757922
30
0.0
10
-47.053322
20
18.203496
30
0.0
10
-46.992690
20
17.001844
30
0.0
10
-46.932057
20
15.800196
30
0.0
10
-47.147031
20
15.287567
30
0.0
10
-47.681710
20
15.078105
30
0.0
10
-48.243947
20
15.287567
30
0.0
10
-48.480972
20
15.789172
30
0.0
10
-48.519557
20
16.996332
30
0.0
10
-48.552628
20
18.203496
30
0.0
10
-48.541593
20
18.760221
30
0.0
10
-50.680310
20
18.490126
30
0.0
10
-52.796976
20
18.098763
30
0.0
10
-52.874144
20
16.847505
30
0.0
10
-52.929268
20
15.585221
30
0.0
10
-53.144242
20
15.072593
30
0.0
10
-53.678921
20
14.863130
30
0.0
10
-54.213599
20
15.072593
30
0.0
10
-54.428573
20
15.585221
30
0.0
10
-54.334867
20
17.249892
30
0.0
10
-54.235646
20
18.914563
30
0.0
10
-54.202576
20
21.036741
30
0.0
10
-54.169502
20
23.164432
30
0.0
10
-53.954528
20
23.677063
30
0.0
10
-53.419849
20
23.886525
30
0.0
10
-52.885171
20
23.677063
30
0.0
10
-52.670196
20
23.164432
30
0.0
10
-52.703270
20
21.902150
30
0.0
10
-52.730843
20
20.645378
30
0.0
10
-52.769429
20
20.116211
30
0.0
10
-52.797002
20
19.559483
30
0.0
10
-50.680335
20
19.956358
30
0.0
10
-48.541618
20
20.209918
30
0.0
10
-48.469962
20
22.194293
30
0.0
10
-48.210891
20
23.169943
30
0.0
10
-47.881539
20
23.678441
30
0.0
10
-47.510847
20
23.847940
30
0.0
10
-46.992704
20
23.655013
30
0.0
10
-46.750170
20
23.131358
30
0.0
10
-46.772212
20
22.965996
30
0.0
10
-46.772192
20
22.965996
30
0.0
62
0
0
LWPOLYLINE
100
AcDbPolyline
8
Layer_1
90
33
70
0
10
-41.105701
20
21.836003
30
0.0
10
-42.676662
20
21.990345
30
0.0
10
-42.753833
20
19.294900
30
0.0
10
-42.759336
20
16.819943
30
0.0
10
-41.265543
20
16.836482
30
0.0
10
-40.719841
20
16.615996
30
0.0
10
-40.499355
20
16.086829
30
0.0
10
-40.719841
20
15.557662
30
0.0
10
-41.265543
20
15.342688
30
0.0
10
-42.191584
20
15.326150
30
0.0
10
-43.117626
20
15.315115
30
0.0
10
-44.209033
20
15.221409
30
0.0
10
-45.300440
20
15.122190
30
0.0
10
-45.851654
20
15.337165
30
0.0
10
-46.066628
20
15.866331
30
0.0
10
-45.851654
20
16.395498
30
0.0
10
-45.300440
20
16.615984
30
0.0
10
-44.313763
20
16.698667
30
0.0
10
-44.324798
20
19.190159
30
0.0
10
-44.214553
20
22.050966
30
0.0
10
-45.410690
20
22.017893
30
0.0
10
-45.967419
20
22.232867
30
0.0
10
-46.187905
20
22.767545
30
0.0
10
-45.967419
20
23.296712
30
0.0
10
-45.465811
20
23.511686
30
0.0
10
-43.779093
20
23.555784
30
0.0
10
-40.995456
20
23.324274
30
0.0
10
-40.486961
20
23.087252
30
0.0
10
-40.317462
20
22.563597
30
0.0
10
-40.386364
20
22.248026
30
0.0
10
-40.593069
20
22.006869
30
0.0
10
-41.105701
20
21.835992
30
0.0
10
-41.105701
20
21.836003
30
0.0
62
0
0
LWPOLYLINE
100
AcDbPolyline
8
Layer_1
90
51
70
0
10
-37.059780
20
14.984398
30
0.0
10
-38.311039
20
15.140117
30
0.0
10
-39.264641
20
15.607271
30
0.0
10
-39.773136
20
16.165377
30
0.0
10
-39.942635
20
16.803408
30
0.0
10
-39.733172
20
17.376672
30
0.0
10
-39.154396
20
17.608182
30
0.0
10
-38.724449
20
17.481402
30
0.0
10
-38.426794
20
17.101065
30
0.0
10
-37.914164
20
16.592568
30
0.0
10
-37.004659
20
16.423068
30
0.0
10
-36.071726
20
16.526422
30
0.0
10
-35.169111
20
16.836482
30
0.0
10
-34.478714
20
17.281587
30
0.0
10
-34.248581
20
17.768035
30
0.0
10
-34.391897
20
18.344056
30
0.0
10
-34.821845
20
18.683053
30
0.0
10
-36.458954
20
18.870466
30
0.0
10
-37.362948
20
18.971059
30
0.0
10
-38.167722
20
19.228755
30
0.0
10
-38.928399
20
19.785482
30
0.0
10
-39.170935
20
20.540648
30
0.0
10
-38.876033
20
21.570042
30
0.0
10
-38.024407
20
22.508485
30
0.0
10
-36.836537
20
23.182347
30
0.0
10
-35.532912
20
23.406968
30
0.0
10
-34.198972
20
23.158920
30
0.0
10
-33.458966
20
22.826813
30
0.0
10
-33.212298
20
22.447852
30
0.0
10
-33.410734
20
21.940733
30
0.0
10
-33.978486
20
21.692688
30
0.0
10
-34.755701
20
21.802930
30
0.0
10
-35.532912
20
21.913174
30
0.0
10
-36.226066
20
21.824984
30
0.0
10
-36.883391
20
21.571420
30
0.0
10
-37.379485
20
21.214507
30
0.0
10
-37.544849
20
20.827279
30
0.0
10
-37.346410
20
20.480013
30
0.0
10
-36.740076
20
20.292600
30
0.0
10
-35.334476
20
20.215430
30
0.0
10
-34.238935
20
19.996322
30
0.0
10
-33.399710
20
19.526412
30
0.0
10
-32.812665
20
18.738174
30
0.0
10
-32.616984
20
17.696376
30
0.0
10
-32.718270
20
17.028372
30
0.0
10
-33.022127
20
16.446496
30
0.0
10
-33.528557
20
15.950746
30
0.0
10
-34.237557
20
15.541124
30
0.0
10
-35.560474
20
15.123580
30
0.0
10
-37.059780
20
14.984398
30
0.0
10
-37.059780
20
14.984398
30
0.0
62
0
0
LWPOLYLINE
100
AcDbPolyline
8
Layer_1
90
33
70
0
10
-22.210040
20
21.836003
30
0.0
10
-23.781003
20
21.990345
30
0.0
10
-23.858173
20
19.294900
30
0.0
10
-23.863685
20
16.819943
30
0.0
10
-22.369892
20
16.836482
30
0.0
10
-21.824189
20
16.615996
30
0.0
10
-21.603702
20
16.086829
30
0.0
10
-21.824189
20
15.557662
30
0.0
10
-22.369892
20
15.342688
30
0.0
10
-23.295933
20
15.326150
30
0.0
10
-24.221975
20
15.315115
30
0.0
10
-25.313381
20
15.221409
30
0.0
10
-26.404788
20
15.122190
30
0.0
10
-26.956003
20
15.337165
30
0.0
10
-27.170977
20
15.866331
30
0.0
10
-26.956003
20
16.395498
30
0.0
10
-26.404788
20
16.615984
30
0.0
10
-25.418112
20
16.698667
30
0.0
10
-25.429136
20
19.190159
30
0.0
10
-25.318893
20
22.050966
30
0.0
10
-26.515030
20
22.017893
30
0.0
10
-27.071757
20
22.232867
30
0.0
10
-27.292243
20
22.767545
30
0.0
10
-27.071757
20
23.296712
30
0.0
10
-26.570151
20
23.511686
30
0.0
10
-24.883433
20
23.555784
30
0.0
10
-22.099795
20
23.324274
30
0.0
10
-21.591299
20
23.087252
30
0.0
10
-21.421801
20
22.563597
30
0.0
10
-21.490703
20
22.248026
30
0.0
10
-21.697408
20
22.006869
30
0.0
10
-22.210039
20
21.835992
30
0.0
10
-22.210040
20
21.836003
30
0.0
62
0
0
LWPOLYLINE
100
AcDbPolyline
8
Layer_1
90
51
70
0
10
-18.164119
20
14.984398
30
0.0
10
-19.415378
20
15.140117
30
0.0
10
-20.368981
20
15.607271
30
0.0
10
-20.877477
20
16.165377
30
0.0
10
-21.046975
20
16.803408
30
0.0
10
-20.837514
20
17.376672
30
0.0
10
-20.258737
20
17.608182
30
0.0
10
-19.828790
20
17.481402
30
0.0
10
-19.531133
20
17.101065
30
0.0
10
-19.018503
20
16.592568
30
0.0
10
-18.108998
20
16.423068
30
0.0
10
-17.176066
20
16.526422
30
0.0
10
-16.273451
20
16.836482
30
0.0
10
-15.583054
20
17.281587
30
0.0
10
-15.352922
20
17.768035
30
0.0
10
-15.496238
20
18.344056
30
0.0
10
-15.926186
20
18.683053
30
0.0
10
-17.563295
20
18.870466
30
0.0
10
-18.467288
20
18.971059
30
0.0
10
-19.272062
20
19.228755
30
0.0
10
-20.032739
20
19.785482
30
0.0
10
-20.275274
20
20.540648
30
0.0
10
-19.980374
20
21.570042
30
0.0
10
-19.128746
20
22.508485
30
0.0
10
-17.940877
20
23.182347
30
0.0
10
-16.637253
20
23.406968
30
0.0
10
-15.303312
20
23.158920
30
0.0
10
-14.563306
20
22.826813
30
0.0
10
-14.316637
20
22.447852
30
0.0
10
-14.515074
20
21.940733
30
0.0
10
-15.082826
20
21.692688
30
0.0
10
-15.860040
20
21.802930
30
0.0
10
-16.637253
20
21.913174
30
0.0
10
-17.330406
20
21.824984
30
0.0
10
-17.987731
20
21.571420
30
0.0
10
-18.483824
20
21.214507
30
0.0
10
-18.649189
20
20.827279
30
0.0
10
-18.450751
20
20.480013
30
0.0
10
-17.844415
20
20.292600
30
0.0
10
-16.438816
20
20.215430
30
0.0
10
-15.343275
20
19.996322
30
0.0
10
-14.504050
20
19.526412
30
0.0
10
-13.917006
20
18.738174
30
0.0
10
-13.721324
20
17.696376
30
0.0
10
-13.822610
20
17.028372
30
0.0
10
-14.126468
20
16.446496
30
0.0
10
-14.632897
20
15.950746
30
0.0
10
-15.341897
20
15.541124
30
0.0
10
-16.664814
20
15.123580
30
0.0
10
-18.164119
20
14.984398
30
0.0
10
-18.164119
20
14.984398
30
0.0
62
0
0
LWPOLYLINE
100
AcDbPolyline
8
Layer_1
90
27
70
0
10
-1.699319
20
15.155275
30
0.0
10
-2.136157
20
15.419859
30
0.0
10
-2.575751
20
16.180535
30
0.0
10
-3.077357
20
17.679841
30
0.0
10
-4.411298
20
17.558573
30
0.0
10
-5.745239
20
17.415257
30
0.0
10
-6.627184
20
15.590733
30
0.0
10
-6.916572
20
15.293077
30
0.0
10
-7.299666
20
15.193858
30
0.0
10
-7.845369
20
15.397809
30
0.0
10
-8.087904
20
15.926975
30
0.0
10
-7.283130
20
17.834180
30
0.0
10
-7.349276
20
18.153887
30
0.0
10
-7.204581
20
18.389531
30
0.0
10
-6.814597
20
18.567297
30
0.0
10
-5.072757
20
21.378496
30
0.0
10
-3.959302
20
22.945324
30
0.0
10
-3.375014
20
23.467600
30
0.0
10
-2.869274
20
23.284321
30
0.0
10
-2.564727
20
22.734483
30
0.0
10
-2.217462
20
20.965082
30
0.0
10
-1.396151
20
17.332575
30
0.0
10
-1.115031
20
16.604969
30
0.0
10
-0.916593
20
15.893902
30
0.0
10
-1.159128
20
15.359223
30
0.0
10
-1.699319
20
15.155275
30
0.0
10
-1.699319
20
15.155275
30
0.0
62
0
0
LWPOLYLINE
100
AcDbPolyline
8
Layer_1
90
6
70
0
10
-3.755352
20
20.810743
30
0.0
10
-4.940465
20
18.798807
30
0.0
10
-4.168764
20
18.887001
30
0.0
10
-3.391550
20
18.947637
30
0.0
10
-3.755352
20
20.810743
30
0.0
10
-3.755352
20
20.810743
30
0.0
62
0
0
LWPOLYLINE
100
AcDbPolyline
8
Layer_1
90
44
70
0
10
7.489439
20
19.675239
30
0.0
10
6.794908
20
16.979797
30
0.0
10
6.590959
20
15.739563
30
0.0
10
6.269876
20
15.152518
30
0.0
10
5.758624
20
14.956836
30
0.0
10
5.418248
20
15.021604
30
0.0
10
5.157799
20
15.215908
30
0.0
10
4.970386
20
15.739563
30
0.0
10
5.065470
20
16.730372
30
0.0
10
5.350724
20
17.916862
30
0.0
10
5.962573
20
20.050067
30
0.0
10
6.287790
20
21.747809
30
0.0
10
6.822469
20
23.302235
30
0.0
10
7.151820
20
23.595757
30
0.0
10
7.555585
20
23.693598
30
0.0
10
7.991045
20
23.566819
30
0.0
10
8.294214
20
23.186482
30
0.0
10
8.768259
20
21.224154
30
0.0
10
9.490351
20
18.126325
30
0.0
10
10.658927
20
21.720247
30
0.0
10
10.967608
20
22.988043
30
0.0
10
11.346568
20
23.579221
30
0.0
10
11.888138
20
23.776281
30
0.0
10
12.411792
20
23.547526
30
0.0
10
12.781106
20
22.861263
30
0.0
10
13.040177
20
21.483225
30
0.0
10
13.844952
20
17.459355
30
0.0
10
14.335533
20
15.607271
30
0.0
10
14.076462
20
15.061566
30
0.0
10
13.530759
20
14.863130
30
0.0
10
13.007104
20
15.078104
30
0.0
10
12.637790
20
15.723025
30
0.0
10
12.329110
20
17.056968
30
0.0
10
11.755846
20
19.906749
30
0.0
10
10.934535
20
17.586134
30
0.0
10
10.603806
20
16.571898
30
0.0
10
10.179370
20
15.585221
30
0.0
10
9.829348
20
15.200750
30
0.0
10
9.363571
20
15.072593
30
0.0
10
8.906063
20
15.225555
30
0.0
10
8.569821
20
15.684442
30
0.0
10
8.261141
20
16.709702
30
0.0
10
7.489439
20
19.675239
30
0.0
10
7.489439
20
19.675239
30
0.0
62
0
0
LWPOLYLINE
100
AcDbPolyline
8
Layer_1
90
43
70
0
10
20.900507
20
16.274241
30
0.0
10
19.930368
20
15.364735
30
0.0
10
19.226191
20
15.034006
30
0.0
10
18.502721
20
14.923763
30
0.0
10
17.277645
20
15.058811
30
0.0
10
16.413615
20
15.463956
30
0.0
10
15.781784
20
16.139538
30
0.0
10
15.330477
20
17.025271
30
0.0
10
15.059692
20
18.121156
30
0.0
10
14.969431
20
19.427191
30
0.0
10
14.996993
20
20.231968
30
0.0
10
15.024554
20
21.036741
30
0.0
10
15.035578
20
21.676150
30
0.0
10
15.046602
20
22.321073
30
0.0
10
15.206454
20
23.153408
30
0.0
10
15.464147
20
23.542015
30
0.0
10
15.807279
20
23.671551
30
0.0
10
16.341958
20
23.473112
30
0.0
10
16.595516
20
22.932922
30
0.0
10
16.584493
20
21.979318
30
0.0
10
16.578981
20
21.025718
30
0.0
10
16.551419
20
20.226456
30
0.0
10
16.523857
20
19.427191
30
0.0
10
16.722295
20
17.839691
30
0.0
10
17.007549
20
17.095552
30
0.0
10
17.400290
20
16.615996
30
0.0
10
18.502720
20
16.423068
30
0.0
10
19.171069
20
16.569832
30
0.0
10
19.720906
20
17.032165
30
0.0
10
20.152232
20
17.810068
30
0.0
10
20.465047
20
18.903539
30
0.0
10
20.663484
20
20.460722
30
0.0
10
20.729630
20
22.541559
30
0.0
10
20.911531
20
23.136873
30
0.0
10
21.211943
20
23.422125
30
0.0
10
21.617087
20
23.517209
30
0.0
10
21.945060
20
23.448308
30
0.0
10
22.179326
20
23.241602
30
0.0
10
22.322642
20
22.789607
30
0.0
10
22.118693
20
19.394121
30
0.0
10
21.659806
20
17.674328
30
0.0
10
20.900507
20
16.274241
30
0.0
10
20.900507
20
16.274241
30
0.0
62
0
0
LWPOLYLINE
100
AcDbPolyline
8
Layer_1
90
23
70
0
10
28.595472
20
15.530100
30
0.0
10
26.583537
20
15.017469
30
0.0
10
24.538528
20
14.808009
30
0.0
10
23.947694
20
14.882079
30
0.0
10
23.525670
20
15.104288
30
0.0
10
23.272455
20
15.474636
30
0.0
10
23.188051
20
15.993123
30
0.0
10
23.298294
20
17.740473
30
0.0
10
23.441610
20
23.065214
30
0.0
10
23.656584
20
23.599892
30
0.0
10
24.207799
20
23.820378
30
0.0
10
24.759014
20
23.599892
30
0.0
10
24.979500
20
23.065214
30
0.0
10
24.830672
20
17.652279
30
0.0
10
24.725941
20
16.301803
30
0.0
10
26.216979
20
16.472676
30
0.0
10
28.077330
20
16.941211
30
0.0
10
28.319865
20
16.979797
30
0.0
10
28.882106
20
16.726237
30
0.0
10
29.075030
20
16.219121
30
0.0
10
28.955141
20
15.809843
30
0.0
10
28.595472
20
15.530100
30
0.0
10
28.595472
20
15.530100
30
0.0
62
0
0
LWPOLYLINE
100
AcDbPolyline
8
Layer_1
90
36
70
0
10
36.213268
20
21.929709
30
0.0
10
34.873813
20
21.990345
30
0.0
10
33.534361
20
22.045466
30
0.0
10
33.683188
20
19.807531
30
0.0
10
33.798945
20
17.558573
30
0.0
10
33.837530
20
17.001844
30
0.0
10
33.876115
20
16.445118
30
0.0
10
33.699727
20
15.700977
30
0.0
10
33.425497
20
15.382650
30
0.0
10
33.054804
20
15.276541
30
0.0
10
32.520125
20
15.469468
30
0.0
10
32.261054
20
16.009658
30
0.0
10
32.288627
20
16.241168
30
0.0
10
32.316200
20
16.483704
30
0.0
10
32.277617
20
17.249892
30
0.0
10
32.244544
20
18.021595
30
0.0
10
32.128787
20
20.022505
30
0.0
10
31.974449
20
22.023416
30
0.0
10
31.687815
20
22.023416
30
0.0
10
29.736514
20
22.199805
30
0.0
10
29.277627
20
22.454743
30
0.0
10
29.124664
20
22.921898
30
0.0
10
29.323103
20
23.429015
30
0.0
10
29.590442
20
23.624697
30
0.0
10
29.929438
20
23.671551
30
0.0
10
30.805871
20
23.577845
30
0.0
10
31.687815
20
23.517209
30
0.0
10
32.691028
20
23.528244
30
0.0
10
33.699752
20
23.539279
30
0.0
10
34.956521
20
23.478644
30
0.0
10
36.213294
20
23.423523
30
0.0
10
36.764508
20
23.208549
30
0.0
10
36.990505
20
22.679382
30
0.0
10
36.764508
20
22.144703
30
0.0
10
36.213294
20
21.929729
30
0.0
10
36.213268
20
21.929709
30
0.0
62
0
0
LWPOLYLINE
100
AcDbPolyline
8
Layer_1
90
33
70
0
10
42.193952
20
21.836003
30
0.0
10
40.622990
20
21.990345
30
0.0
10
40.545820
20
19.294900
30
0.0
10
40.540316
20
16.819943
30
0.0
10
42.034110
20
16.836482
30
0.0
10
42.579812
20
16.615996
30
0.0
10
42.800298
20
16.086829
30
0.0
10
42.579812
20
15.557662
30
0.0
10
42.034110
20
15.342688
30
0.0
10
41.108068
20
15.326150
30
0.0
10
40.182027
20
15.315115
30
0.0
10
39.090620
20
15.221409
30
0.0
10
37.999213
20
15.122190
30
0.0
10
37.447999
20
15.337165
30
0.0
10
37.233025
20
15.866331
30
0.0
10
37.447999
20
16.395498
30
0.0
10
37.999213
20
16.615984
30
0.0
10
38.985890
20
16.698667
30
0.0
10
38.974855
20
19.190159
30
0.0
10
39.085099
20
22.050966
30
0.0
10
37.888963
20
22.017893
30
0.0
10
37.332234
20
22.232867
30
0.0
10
37.111748
20
22.767545
30
0.0
10
37.332234
20
23.296712
30
0.0
10
37.833842
20
23.511686
30
0.0
10
39.520560
20
23.555784
30
0.0
10
42.304197
20
23.324274
30
0.0
10
42.812692
20
23.087252
30
0.0
10
42.982190
20
22.563597
30
0.0
10
42.913289
20
22.248026
30
0.0
10
42.706584
20
22.006869
30
0.0
10
42.193952
20
21.835992
30
0.0
10
42.193952
20
21.836003
30
0.0
62
0
0
LWPOLYLINE
100
AcDbPolyline
8
Layer_1
90
23
70
0
10
53.730889
20
15.530100
30
0.0
10
51.718952
20
15.017469
30
0.0
10
49.673945
20
14.808009
30
0.0
10
49.083110
20
14.882079
30
0.0
10
48.661086
20
15.104288
30
0.0
10
48.407871
20
15.474636
30
0.0
10
48.323466
20
15.993123
30
0.0
10
48.433711
20
17.740473
30
0.0
10
48.577026
20
23.065214
30
0.0
10
48.792000
20
23.599892
30
0.0
10
49.343217
20
23.820378
30
0.0
10
49.894431
20
23.599892
30
0.0
10
50.114917
20
23.065214
30
0.0
10
49.966090
20
17.652279
30
0.0
10
49.861357
20
16.301803
30
0.0
10
51.352395
20
16.472676
30
0.0
10
53.212746
20
16.941211
30
0.0
10
53.455282
20
16.979797
30
0.0
10
54.017522
20
16.726237
30
0.0
10
54.210447
20
16.219121
30
0.0
10
54.090557
20
15.809843
30
0.0
10
53.730889
20
15.530100
30
0.0
10
53.730889
20
15.530100
30
0.0
62
0
0
LWPOLYLINE
100
AcDbPolyline
8
Layer_1
90
33
70
0
10
59.480063
20
21.836003
30
0.0
10
57.909102
20
21.990345
30
0.0
10
57.831931
20
19.294900
30
0.0
10
57.826427
20
16.819943
30
0.0
10
59.320221
20
16.836482
30
0.0
10
59.865923
20
16.615996
30
0.0
10
60.086409
20
16.086829
30
0.0
10
59.865923
20
15.557662
30
0.0
10
59.320221
20
15.342688
30
0.0
10
58.394179
20
15.326150
30
0.0
10
57.468138
20
15.315115
30
0.0
10
56.376731
20
15.221409
30
0.0
10
55.285324
20
15.122190
30
0.0
10
54.734110
20
15.337165
30
0.0
10
54.519136
20
15.866331
30
0.0
10
54.734110
20
16.395498
30
0.0
10
55.285324
20
16.615984
30
0.0
10
56.272001
20
16.698667
30
0.0
10
56.260966
20
19.190159
30
0.0
10
56.371211
20
22.050966
30
0.0
10
55.175074
20
22.017893
30
0.0
10
54.618345
20
22.232867
30
0.0
10
54.397859
20
22.767545
30
0.0
10
54.618345
20
23.296712
30
0.0
10
55.119953
20
23.511686
30
0.0
10
56.806671
20
23.555784
30
0.0
10
59.590308
20
23.324274
30
0.0
10
60.098803
20
23.087252
30
0.0
10
60.268302
20
22.563597
30
0.0
10
60.199400
20
22.248026
30
0.0
10
59.992695
20
22.006869
30
0.0
10
59.480063
20
21.835992
30
0.0
10
59.480063
20
21.836003
30
0.0
62
0
0
LWPOLYLINE
100
AcDbPolyline
8
Layer_1
90
42
70
0
10
69.093258
20
16.676628
30
0.0
10
68.999552
20
15.805707
30
0.0
10
68.743237
20
15.272407
30
0.0
10
68.194778
20
15.094640
30
0.0
10
67.784122
20
15.203505
30
0.0
10
67.323857
20
15.530100
30
0.0
10
65.065253
20
17.827290
30
0.0
10
62.533798
20
20.893426
30
0.0
10
62.500724
20
19.135049
30
0.0
10
62.517263
20
17.823156
30
0.0
10
62.539304
20
16.511263
30
0.0
10
62.340867
20
15.291699
30
0.0
10
62.092820
20
14.986808
30
0.0
10
61.745554
20
14.885177
30
0.0
10
61.100631
20
15.133225
30
0.0
10
60.885657
20
15.667904
30
0.0
10
60.918731
20
16.334874
30
0.0
10
60.957316
20
17.001844
30
0.0
10
60.979358
20
17.977498
30
0.0
10
61.001399
20
18.953148
30
0.0
10
60.984861
20
20.000455
30
0.0
10
60.968323
20
21.047765
30
0.0
10
60.902178
20
22.034442
30
0.0
10
60.836031
20
23.021116
30
0.0
10
61.117153
20
23.610916
30
0.0
10
61.767585
20
23.869987
30
0.0
10
62.197534
20
23.693598
30
0.0
10
62.671579
20
23.164432
30
0.0
10
65.157560
20
19.921908
30
0.0
10
67.610468
20
17.338086
30
0.0
10
67.615971
20
18.175934
30
0.0
10
67.560850
20
21.841515
30
0.0
10
67.489191
20
22.436829
30
0.0
10
67.434071
20
23.043164
30
0.0
10
67.635264
20
23.613673
30
0.0
10
68.238844
20
23.803843
30
0.0
10
68.631929
20
23.630554
30
0.0
10
68.912704
20
23.110689
30
0.0
10
69.137324
20
21.031230
30
0.0
10
69.126289
20
20.160309
30
0.0
10
69.093215
20
16.676628
30
0.0
10
69.093258
20
16.676628
30
0.0
62
0
0
LWPOLYLINE
100
AcDbPolyline
8
Layer_1
90
47
70
0
10
75.663744
20
22.387220
30
0.0
10
75.432234
20
22.420291
30
0.0
10
73.695907
20
22.662827
30
0.0
10
72.808451
20
22.596680
30
0.0
10
71.799727
20
22.398243
30
0.0
10
71.750118
20
20.220941
30
0.0
10
73.905370
20
20.424892
30
0.0
10
75.239310
20
20.529622
30
0.0
10
75.796036
20
20.320162
30
0.0
10
76.027548
20
19.774457
30
0.0
10
75.852537
20
19.260449
30
0.0
10
75.327504
20
19.030316
30
0.0
10
74.010099
20
18.920075
30
0.0
10
71.650897
20
18.705100
30
0.0
10
71.612314
20
17.575108
30
0.0
10
71.739091
20
16.345900
30
0.0
10
72.433623
20
16.274241
30
0.0
10
73.464397
20
16.290780
30
0.0
10
74.495169
20
16.307318
30
0.0
10
74.820385
20
16.340389
30
0.0
10
75.140092
20
16.373462
30
0.0
10
75.685794
20
16.191562
30
0.0
10
75.880098
20
15.946270
30
0.0
10
75.944865
20
15.618298
30
0.0
10
75.783635
20
15.124960
30
0.0
10
75.299943
20
14.879668
30
0.0
10
73.012399
20
14.774930
30
0.0
10
71.528253
20
14.896200
30
0.0
10
70.669734
20
15.260008
30
0.0
10
70.219117
20
16.106123
30
0.0
10
70.068911
20
17.575111
30
0.0
10
70.173641
20
19.790998
30
0.0
10
70.283883
20
22.006883
30
0.0
10
70.228762
20
22.574635
30
0.0
10
70.173641
20
23.147899
30
0.0
10
70.366566
20
23.776284
30
0.0
10
70.945341
20
23.985746
30
0.0
10
71.391828
20
23.847943
30
0.0
10
72.604500
20
24.084964
30
0.0
10
73.695907
20
24.167647
30
0.0
10
74.945787
20
24.087721
30
0.0
10
75.917304
20
23.847943
30
0.0
10
76.297643
20
23.576468
30
0.0
10
76.424423
20
23.147899
30
0.0
10
76.225984
20
22.640780
30
0.0
10
75.663744
20
22.387223
30
0.0
10
75.663744
20
22.387220
30
0.0
62
0
0
LWPOLYLINE
100
AcDbPolyline
8
Layer_1
90
36
70
0
10
-55.751490
20
7.818601
30
0.0
10
-57.090942
20
7.879222
30
0.0
10
-58.430394
20
7.934340
30
0.0
10
-58.281567
20
5.696431
30
0.0
10
-58.165811
20
3.447459
30
0.0
10
-58.127228
20
2.890747
30
0.0
10
-58.088643
20
2.334007
30
0.0
10
-58.265032
20
1.589872
30
0.0
10
-58.539261
20
1.271546
30
0.0
10
-58.909952
20
1.165438
30
0.0
10
-59.444630
20
1.358365
30
0.0
10
-59.703702
20
1.898538
30
0.0
10
-59.676129
20
2.130045
30
0.0
10
-59.648556
20
2.372587
30
0.0
10
-59.687141
20
3.138792
30
0.0
10
-59.720215
20
3.910472
30
0.0
10
-59.835968
20
5.911400
30
0.0
10
-59.990310
20
7.912299
30
0.0
10
-60.276940
20
7.912299
30
0.0
10
-62.228245
20
8.088688
30
0.0
10
-62.687129
20
8.343633
30
0.0
10
-62.840091
20
8.810782
30
0.0
10
-62.641655
20
9.317907
30
0.0
10
-62.374316
20
9.513585
30
0.0
10
-62.035317
20
9.560448
30
0.0
10
-61.158885
20
9.466722
30
0.0
10
-60.276940
20
9.406101
30
0.0
10
-59.273731
20
9.417108
30
0.0
10
-58.265006
20
9.428114
30
0.0
10
-57.008234
20
9.367493
30
0.0
10
-55.751465
20
9.312375
30
0.0
10
-55.200248
20
9.097378
30
0.0
10
-54.974250
20
8.568212
30
0.0
10
-55.200248
20
8.033542
30
0.0
10
-55.751465
20
7.818573
30
0.0
10
-55.751490
20
7.818601
30
0.0
62
0
0
LWPOLYLINE
100
AcDbPolyline
8
Layer_1
90
47
70
0
10
-48.932956
20
8.276112
30
0.0
10
-49.164466
20
8.309188
30
0.0
10
-50.900796
20
8.551702
30
0.0
10
-51.788252
20
8.485577
30
0.0
10
-52.796976
20
8.287118
30
0.0
10
-52.846585
20
6.109830
30
0.0
10
-50.691333
20
6.313792
30
0.0
10
-49.357393
20
6.418525
30
0.0
10
-48.800664
20
6.209060
30
0.0
10
-48.569155
20
5.663355
30
0.0
10
-48.744166
20
5.149350
30
0.0
10
-49.269198
20
4.919219
30
0.0
10
-50.586603
20
4.808955
30
0.0
10
-52.945803
20
4.593986
30
0.0
10
-52.984389
20
3.463997
30
0.0
10
-52.857609
20
2.234778
30
0.0
10
-52.163077
20
2.163122
30
0.0
10
-51.132305
20
2.179773
30
0.0
10
-50.101534
20
2.196424
30
0.0
10
-49.776315
20
2.229500
30
0.0
10
-49.456611
20
2.262577
30
0.0
10
-48.910909
20
2.080685
30
0.0
10
-48.716605
20
1.835384
30
0.0
10
-48.651837
20
1.507407
30
0.0
10
-48.813067
20
1.014068
30
0.0
10
-49.296757
20
0.768775
30
0.0
10
-51.584301
20
0.664042
30
0.0
10
-53.068449
20
0.785313
30
0.0
10
-53.926966
20
1.149126
30
0.0
10
-54.377585
20
1.995235
30
0.0
10
-54.527791
20
3.464223
30
0.0
10
-54.423062
20
5.680119
30
0.0
10
-54.312817
20
7.895986
30
0.0
10
-54.367938
20
8.463733
30
0.0
10
-54.423062
20
9.037011
30
0.0
10
-54.230136
20
9.665386
30
0.0
10
-53.651359
20
9.874844
30
0.0
10
-53.204875
20
9.737063
30
0.0
10
-51.992200
20
9.974073
30
0.0
10
-50.900796
20
10.056764
30
0.0
10
-49.650914
20
9.976839
30
0.0
10
-48.679396
20
9.737063
30
0.0
10
-48.299059
20
9.465586
30
0.0
10
-48.172280
20
9.037011
30
0.0
10
-48.370716
20
8.529886
30
0.0
10
-48.932956
20
8.276337
30
0.0
10
-48.932956
20
8.276112
30
0.0
62
0
0
LWPOLYLINE
100
AcDbPolyline
8
Layer_1
90
38
70
0
10
-40.311951
20
8.347768
30
0.0
10
-41.436428
20
6.958698
30
0.0
10
-42.781395
20
5.178271
30
0.0
10
-41.623841
20
3.563226
30
0.0
10
-40.394630
20
2.003271
30
0.0
10
-40.190682
20
1.507181
30
0.0
10
-40.427704
20
0.972511
30
0.0
10
-40.978921
20
0.746507
30
0.0
10
-41.608683
20
1.060698
30
0.0
10
-42.406567
20
2.003271
30
0.0
10
-43.139685
20
3.083646
30
0.0
10
-43.839728
20
4.037275
30
0.0
10
-45.559520
20
2.152115
30
0.0
10
-46.579268
20
1.060705
30
0.0
10
-47.135994
20
0.829198
30
0.0
10
-47.692722
20
1.055174
30
0.0
10
-47.929744
20
1.584340
30
0.0
10
-47.736819
20
2.069424
30
0.0
10
-46.733607
20
3.133261
30
0.0
10
-44.787817
20
5.283004
30
0.0
10
-45.961907
20
6.694115
30
0.0
10
-46.590291
20
7.498900
30
0.0
10
-47.290335
20
8.237532
30
0.0
10
-47.525980
20
8.513129
30
0.0
10
-47.604528
20
8.832823
30
0.0
10
-47.384041
20
9.356486
30
0.0
10
-46.821801
20
9.593525
30
0.0
10
-46.039075
20
9.174594
30
0.0
10
-45.454787
20
8.551702
30
0.0
10
-44.765770
20
7.658750
30
0.0
10
-43.746019
20
6.440566
30
0.0
10
-42.362470
20
8.270608
30
0.0
10
-41.462611
20
9.262796
30
0.0
10
-40.901750
20
9.593525
30
0.0
10
-40.345021
20
9.367521
30
0.0
10
-40.108000
20
8.838355
30
0.0
10
-40.311951
20
8.347768
30
0.0
10
-40.311951
20
8.347768
30
0.0
62
0
0
LWPOLYLINE
100
AcDbPolyline
8
Layer_1
90
36
70
0
10
-32.666593
20
7.818601
30
0.0
10
-34.006048
20
7.879222
30
0.0
10
-35.345500
20
7.934340
30
0.0
10
-35.196673
20
5.696431
30
0.0
10
-35.080916
20
3.447459
30
0.0
10
-35.042331
20
2.890747
30
0.0
10
-35.003746
20
2.334007
30
0.0
10
-35.180135
20
1.589872
30
0.0
10
-35.454364
20
1.271546
30
0.0
10
-35.825057
20
1.165438
30
0.0
10
-36.359736
20
1.358365
30
0.0
10
-36.618807
20
1.898538
30
0.0
10
-36.591234
20
2.130045
30
0.0
10
-36.563661
20
2.372587
30
0.0
10
-36.602244
20
3.138792
30
0.0
10
-36.635317
20
3.910472
30
0.0
10
-36.751074
20
5.911400
30
0.0
10
-36.905413
20
7.912299
30
0.0
10
-37.192046
20
7.912299
30
0.0
10
-39.143347
20
8.088688
30
0.0
10
-39.602234
20
8.343633
30
0.0
10
-39.755197
20
8.810782
30
0.0
10
-39.556758
20
9.317907
30
0.0
10
-39.289419
20
9.513585
30
0.0
10
-38.950423
20
9.560448
30
0.0
10
-38.073990
20
9.466722
30
0.0
10
-37.192046
20
9.406101
30
0.0
10
-36.188833
20
9.417108
30
0.0
10
-35.180109
20
9.428114
30
0.0
10
-33.923340
20
9.367493
30
0.0
10
-32.666567
20
9.312375
30
0.0
10
-32.115354
20
9.097378
30
0.0
10
-31.889356
20
8.568212
30
0.0
10
-32.115354
20
8.033542
30
0.0
10
-32.666567
20
7.818573
30
0.0
10
-32.666593
20
7.818601
30
0.0
62
0
0
LWPOLYLINE
100
AcDbPolyline
8
Layer_1
90
36
70
0
10
-19.922496
20
7.818601
30
0.0
10
-21.261949
20
7.879222
30
0.0
10
-22.601403
20
7.934340
30
0.0
10
-22.452574
20
5.696431
30
0.0
10
-22.336819
20
3.447459
30
0.0
10
-22.298234
20
2.890747
30
0.0
10
-22.259649
20
2.334007
30
0.0
10
-22.436038
20
1.589872
30
0.0
10
-22.710267
20
1.271546
30
0.0
10
-23.080960
20
1.165438
30
0.0
10
-23.615639
20
1.358365
30
0.0
10
-23.874710
20
1.898538
30
0.0
10
-23.847148
20
2.130045
30
0.0
10
-23.819586
20
2.372587
30
0.0
10
-23.858171
20
3.138792
30
0.0
10
-23.891244
20
3.910472
30
0.0
10
-24.006999
20
5.911400
30
0.0
10
-24.161339
20
7.912299
30
0.0
10
-24.447971
20
7.912299
30
0.0
10
-26.399274
20
8.088688
30
0.0
10
-26.858160
20
8.343633
30
0.0
10
-27.011123
20
8.810782
30
0.0
10
-26.812685
20
9.317907
30
0.0
10
-26.545346
20
9.513585
30
0.0
10
-26.206348
20
9.560448
30
0.0
10
-25.329916
20
9.466722
30
0.0
10
-24.447971
20
9.406101
30
0.0
10
-23.444760
20
9.417108
30
0.0
10
-22.436036
20
9.428114
30
0.0
10
-21.179265
20
9.367493
30
0.0
10
-19.922494
20
9.312375
30
0.0
10
-19.371279
20
9.097378
30
0.0
10
-19.145280
20
8.568212
30
0.0
10
-19.371279
20
8.033542
30
0.0
10
-19.922494
20
7.818573
30
0.0
10
-19.922496
20
7.818601
30
0.0
62
0
0
LWPOLYLINE
100
AcDbPolyline
8
Layer_1
90
45
70
0
10
-10.943199
20
8.854893
30
0.0
10
-11.053442
20
8.154841
30
0.0
10
-11.086515
20
7.675289
30
0.0
10
-11.114077
20
7.201240
30
0.0
10
-11.169198
20
5.646816
30
0.0
10
-11.224320
20
4.092393
30
0.0
10
-11.163686
20
2.890747
30
0.0
10
-11.103053
20
1.689073
30
0.0
10
-11.318027
20
1.176445
30
0.0
10
-11.852705
20
0.966979
30
0.0
10
-12.414945
20
1.176445
30
0.0
10
-12.651967
20
1.678066
30
0.0
10
-12.690553
20
2.885216
30
0.0
10
-12.723626
20
4.092393
30
0.0
10
-12.712602
20
4.649104
30
0.0
10
-14.851317
20
4.379018
30
0.0
10
-16.967984
20
3.987660
30
0.0
10
-17.045154
20
2.736400
30
0.0
10
-17.100276
20
1.474104
30
0.0
10
-17.315250
20
0.961476
30
0.0
10
-17.849928
20
0.752011
30
0.0
10
-18.384607
20
0.961476
30
0.0
10
-18.599581
20
1.474104
30
0.0
10
-18.505875
20
3.138792
30
0.0
10
-18.406656
20
4.803452
30
0.0
10
-18.373583
20
6.925622
30
0.0
10
-18.340510
20
9.053323
30
0.0
10
-18.125536
20
9.565952
30
0.0
10
-17.590857
20
9.775417
30
0.0
10
-17.056178
20
9.565952
30
0.0
10
-16.841204
20
9.053323
30
0.0
10
-16.874277
20
7.791028
30
0.0
10
-16.901839
20
6.534264
30
0.0
10
-16.940424
20
6.005098
30
0.0
10
-16.967986
20
5.448386
30
0.0
10
-14.851320
20
5.845247
30
0.0
10
-12.712604
20
6.098795
30
0.0
10
-12.640946
20
8.083184
30
0.0
10
-12.381875
20
9.058827
30
0.0
10
-12.052524
20
9.567335
30
0.0
10
-11.681832
20
9.736837
30
0.0
10
-11.163689
20
9.543910
30
0.0
10
-10.921155
20
9.020247
30
0.0
10
-10.943205
20
8.854893
30
0.0
10
-10.943199
20
8.854893
30
0.0
62
0
0
LWPOLYLINE
100
AcDbPolyline
8
Layer_1
90
27
70
0
10
-3.661646
20
1.044167
30
0.0
10
-4.098484
20
1.308807
30
0.0
10
-4.538078
20
2.069424
30
0.0
10
-5.039684
20
3.568730
30
0.0
10
-6.373625
20
3.447459
30
0.0
10
-7.707566
20
3.304146
30
0.0
10
-8.589510
20
1.479636
30
0.0
10
-8.878898
20
1.181969
30
0.0
10
-9.261993
20
1.082747
30
0.0
10
-9.807696
20
1.286709
30
0.0
10
-10.050231
20
1.815876
30
0.0
10
-9.245456
20
3.723077
30
0.0
10
-9.311602
20
4.042778
30
0.0
10
-9.166907
20
4.278420
30
0.0
10
-8.776923
20
4.456177
30
0.0
10
-7.035083
20
7.267393
30
0.0
10
-5.921628
20
8.834213
30
0.0
10
-5.337340
20
9.356486
30
0.0
10
-4.831600
20
9.173211
30
0.0
10
-4.527054
20
8.623386
30
0.0
10
-4.179788
20
6.853966
30
0.0
10
-3.358477
20
3.221455
30
0.0
10
-3.077357
20
2.493858
30
0.0
10
-2.878920
20
1.782799
30
0.0
10
-3.121455
20
1.248101
30
0.0
10
-3.661646
20
1.044167
30
0.0
10
-3.661646
20
1.044167
30
0.0
62
0
0
LWPOLYLINE
100
AcDbPolyline
8
Layer_1
90
6
70
0
10
-5.717679
20
6.699618
30
0.0
10
-6.902791
20
4.687684
30
0.0
10
-6.131090
20
4.775879
30
0.0
10
-5.353876
20
4.836528
30
0.0
10
-5.717679
20
6.699618
30
0.0
10
-5.717679
20
6.699618
30
0.0
62
0
0
LWPOLYLINE
100
AcDbPolyline
8
Layer_1
90
36
70
0
10
4.860143
20
7.818601
30
0.0
10
3.520689
20
7.879222
30
0.0
10
2.181236
20
7.934340
30
0.0
10
2.330064
20
5.696431
30
0.0
10
2.445820
20
3.447459
30
0.0
10
2.484405
20
2.890747
30
0.0
10
2.522990
20
2.334007
30
0.0
10
2.346601
20
1.589872
30
0.0
10
2.072371
20
1.271546
30
0.0
10
1.701679
20
1.165438
30
0.0
10
1.167000
20
1.358365
30
0.0
10
0.907929
20
1.898538
30
0.0
10
0.935490
20
2.130045
30
0.0
10
0.963050
20
2.372587
30
0.0
10
0.924465
20
3.138792
30
0.0
10
0.891392
20
3.910472
30
0.0
10
0.775637
20
5.911400
30
0.0
10
0.621297
20
7.912299
30
0.0
10
0.334665
20
7.912299
30
0.0
10
-1.616637
20
8.088688
30
0.0
10
-2.075524
20
8.343633
30
0.0
10
-2.228486
20
8.810782
30
0.0
10
-2.030048
20
9.317907
30
0.0
10
-1.762709
20
9.513585
30
0.0
10
-1.423712
20
9.560448
30
0.0
10
-0.547279
20
9.466722
30
0.0
10
0.334665
20
9.406101
30
0.0
10
1.337877
20
9.417108
30
0.0
10
2.346601
20
9.428114
30
0.0
10
3.603372
20
9.367493
30
0.0
10
4.860143
20
9.312375
30
0.0
10
5.411358
20
9.097378
30
0.0
10
5.637356
20
8.568212
30
0.0
10
5.411358
20
8.033542
30
0.0
10
4.860143
20
7.818573
30
0.0
10
4.860143
20
7.818601
30
0.0
62
0
0
LWPOLYLINE
100
AcDbPolyline
8
Layer_1
90
33
70
0
10
15.735620
20
7.724903
30
0.0
10
14.164657
20
7.879222
30
0.0
10
14.087486
20
5.183803
30
0.0
10
14.081974
20
2.708827
30
0.0
10
15.575768
20
2.725478
30
0.0
10
16.121471
20
2.505006
30
0.0
10
16.341957
20
1.975839
30
0.0
10
16.121471
20
1.446672
30
0.0
10
15.575768
20
1.231676
30
0.0
10
14.649726
20
1.215024
30
0.0
10
13.723685
20
1.204018
30
0.0
10
12.632278
20
1.110320
30
0.0
10
11.540872
20
1.011091
30
0.0
10
10.989657
20
1.226059
30
0.0
10
10.774683
20
1.755226
30
0.0
10
10.989657
20
2.284393
30
0.0
10
11.540872
20
2.504893
30
0.0
10
12.527548
20
2.587556
30
0.0
10
12.516524
20
5.079070
30
0.0
10
12.626767
20
7.939872
30
0.0
10
11.430630
20
7.906796
30
0.0
10
10.873903
20
8.121764
30
0.0
10
10.653416
20
8.656434
30
0.0
10
10.873903
20
9.185601
30
0.0
10
11.375508
20
9.400598
30
0.0
10
13.062227
20
9.444681
30
0.0
10
15.845864
20
9.213174
30
0.0
10
16.354360
20
8.976157
30
0.0
10
16.523859
20
8.452500
30
0.0
10
16.454957
20
8.136927
30
0.0
10
16.248251
20
7.895761
30
0.0
10
15.735621
20
7.724903
30
0.0
10
15.735620
20
7.724903
30
0.0
62
0
0
LWPOLYLINE
100
AcDbPolyline
8
Layer_1
90
51
70
0
10
19.781540
20
0.873282
30
0.0
10
18.530282
20
1.028998
30
0.0
10
17.576679
20
1.496146
30
0.0
10
17.068183
20
2.054262
30
0.0
10
16.898684
20
2.692288
30
0.0
10
17.108146
20
3.265566
30
0.0
10
17.686922
20
3.497073
30
0.0
10
18.116870
20
3.370292
30
0.0
10
18.414526
20
2.989948
30
0.0
10
18.927157
20
2.481461
30
0.0
10
19.836662
20
2.311966
30
0.0
10
20.769594
20
2.415316
30
0.0
10
21.672209
20
2.725365
30
0.0
10
22.362606
20
3.170472
30
0.0
10
22.592738
20
3.656924
30
0.0
10
22.449422
20
4.232940
30
0.0
10
22.019474
20
4.571945
30
0.0
10
20.382365
20
4.759340
30
0.0
10
19.478372
20
4.859924
30
0.0
10
18.673597
20
5.117650
30
0.0
10
17.912920
20
5.674375
30
0.0
10
17.670386
20
6.429532
30
0.0
10
17.965285
20
7.458930
30
0.0
10
18.816914
20
8.397382
30
0.0
10
20.004782
20
9.071244
30
0.0
10
21.308407
20
9.295865
30
0.0
10
22.642347
20
9.047820
30
0.0
10
23.382354
20
8.715701
30
0.0
10
23.629023
20
8.336733
30
0.0
10
23.430585
20
7.829636
30
0.0
10
22.862834
20
7.581563
30
0.0
10
22.085620
20
7.691827
30
0.0
10
21.308407
20
7.802063
30
0.0
10
20.615253
20
7.713946
30
0.0
10
19.957929
20
7.460320
30
0.0
10
19.461835
20
7.103394
30
0.0
10
19.296471
20
6.716156
30
0.0
10
19.494908
20
6.368910
30
0.0
10
20.101245
20
6.181486
30
0.0
10
21.506844
20
6.104327
30
0.0
10
22.602384
20
5.885210
30
0.0
10
23.441610
20
5.415310
30
0.0
10
24.028654
20
4.627063
30
0.0
10
24.224335
20
3.585268
30
0.0
10
24.123050
20
2.917260
30
0.0
10
23.819192
20
2.335383
30
0.0
10
23.312763
20
1.839637
30
0.0
10
22.603763
20
1.430021
30
0.0
10
21.280846
20
1.012466
30
0.0
10
19.781540
20
0.873282
30
0.0
10
19.781540
20
0.873282
30
0.0
62
0
0
LWPOLYLINE
100
AcDbPolyline
8
Layer_1
90
49
70
0
10
36.714873
20
4.450674
30
0.0
10
36.149878
20
2.972041
30
0.0
10
35.204544
20
1.821379
30
0.0
10
33.953286
20
1.077244
30
0.0
10
32.503590
20
0.829198
30
0.0
10
31.220635
20
1.022118
30
0.0
10
30.304240
20
1.600879
30
0.0
10
29.754402
20
2.571018
30
0.0
10
29.571123
20
3.927011
30
0.0
10
29.744756
20
5.356036
30
0.0
10
30.265655
20
6.820889
30
0.0
10
31.059405
20
8.163103
30
0.0
10
32.051591
20
9.224209
30
0.0
10
32.845343
20
9.707888
30
0.0
10
33.694215
20
9.869115
30
0.0
10
35.149423
20
9.483261
30
0.0
10
35.967976
20
9.010595
30
0.0
10
36.240827
20
8.507618
30
0.0
10
36.014829
20
7.972948
30
0.0
10
35.458104
20
7.741442
30
0.0
10
34.724986
20
8.050108
30
0.0
10
33.694215
20
8.364306
30
0.0
10
33.111303
20
8.096964
30
0.0
10
32.354760
20
7.294938
30
0.0
10
31.432852
20
5.675744
30
0.0
10
31.202375
20
4.817570
30
0.0
10
31.125549
20
3.927011
30
0.0
10
31.193074
20
3.153933
30
0.0
10
31.395647
20
2.675750
30
0.0
10
31.815948
20
2.415316
30
0.0
10
32.503590
20
2.328504
30
0.0
10
33.295961
20
2.448392
30
0.0
10
33.986357
20
2.808056
30
0.0
10
34.576159
20
3.430935
30
0.0
10
34.989570
20
4.285320
30
0.0
10
33.793433
20
4.104789
30
0.0
10
32.762661
20
3.761657
30
0.0
10
32.420907
20
3.684497
30
0.0
10
31.853155
20
3.938046
30
0.0
10
31.649204
20
4.450674
30
0.0
10
31.773917
20
4.840661
30
0.0
10
32.148055
20
5.167257
30
0.0
10
33.644606
20
5.630278
30
0.0
10
36.268389
20
5.817674
30
0.0
10
36.819606
20
5.602705
30
0.0
10
37.045604
20
5.073538
30
0.0
10
36.962921
20
4.716626
30
0.0
10
36.714873
20
4.450674
30
0.0
10
36.714873
20
4.450674
30
0.0
62
0
0
LWPOLYLINE
100
AcDbPolyline
8
Layer_1
90
27
70
0
10
41.361620
20
0.873282
30
0.0
10
39.851290
20
1.107547
30
0.0
10
38.583495
20
1.810344
30
0.0
10
38.048126
20
2.348813
30
0.0
10
37.665721
20
2.961006
30
0.0
10
37.436277
20
3.646923
30
0.0
10
37.359796
20
4.406563
30
0.0
10
37.433176
20
5.322966
30
0.0
10
37.653318
20
6.198025
30
0.0
10
38.533883
20
7.824104
30
0.0
10
39.235305
20
8.583755
30
0.0
10
40.022165
20
9.126362
30
0.0
10
40.894464
20
9.451927
30
0.0
10
41.852201
20
9.560448
30
0.0
10
43.534784
20
9.339962
30
0.0
10
44.195209
20
9.064355
30
0.0
10
44.735056
20
8.678504
30
0.0
10
45.154669
20
8.182065
30
0.0
10
45.454392
20
7.574691
30
0.0
10
45.694171
20
6.027139
30
0.0
10
45.424075
20
4.241209
30
0.0
10
44.613788
20
2.631667
30
0.0
10
43.943372
20
1.862373
30
0.0
10
43.177873
20
1.312878
30
0.0
10
42.317288
20
0.983181
30
0.0
10
41.361620
20
0.873282
30
0.0
10
41.361620
20
0.873282
30
0.0
62
0
0
LWPOLYLINE
100
AcDbPolyline
8
Layer_1
90
20
70
0
10
41.852201
20
8.066646
30
0.0
10
41.259644
20
7.992231
30
0.0
10
40.711185
20
7.768986
30
0.0
10
39.746558
20
6.876007
30
0.0
10
39.130574
20
5.701920
30
0.0
10
38.925246
20
4.406563
30
0.0
10
39.103013
20
3.576999
30
0.0
10
39.636313
20
2.918292
30
0.0
10
40.409394
20
2.504886
30
0.0
10
41.361620
20
2.367084
30
0.0
10
41.942807
20
2.441497
30
0.0
10
42.473695
20
2.664736
30
0.0
10
43.384577
20
3.557695
30
0.0
10
43.942683
20
4.718009
30
0.0
10
44.128718
20
6.027139
30
0.0
10
43.999183
20
7.008313
30
0.0
10
43.610578
20
7.636709
30
0.0
10
42.922936
20
7.959162
30
0.0
10
41.852201
20
8.066646
30
0.0
10
41.852201
20
8.066646
30
0.0
62
0
0
LWPOLYLINE
100
AcDbPolyline
8
Layer_1
90
33
70
0
10
51.322077
20
7.724903
30
0.0
10
49.751115
20
7.879222
30
0.0
10
49.673945
20
5.183803
30
0.0
10
49.668441
20
2.708827
30
0.0
10
51.162235
20
2.725478
30
0.0
10
51.707937
20
2.505006
30
0.0
10
51.928423
20
1.975839
30
0.0
10
51.707937
20
1.446672
30
0.0
10
51.162235
20
1.231676
30
0.0
10
50.236193
20
1.215024
30
0.0
10
49.310152
20
1.204018
30
0.0
10
48.218745
20
1.110320
30
0.0
10
47.127338
20
1.011091
30
0.0
10
46.576124
20
1.226059
30
0.0
10
46.361150
20
1.755226
30
0.0
10
46.576124
20
2.284393
30
0.0
10
47.127338
20
2.504893
30
0.0
10
48.114015
20
2.587556
30
0.0
10
48.102980
20
5.079070
30
0.0
10
48.213224
20
7.939872
30
0.0
10
47.017088
20
7.906796
30
0.0
10
46.460359
20
8.121764
30
0.0
10
46.239873
20
8.656434
30
0.0
10
46.460359
20
9.185601
30
0.0
10
46.961967
20
9.400598
30
0.0
10
48.648685
20
9.444681
30
0.0
10
51.432322
20
9.213174
30
0.0
10
51.940817
20
8.976157
30
0.0
10
52.110315
20
8.452500
30
0.0
10
52.041414
20
8.136927
30
0.0
10
51.834709
20
7.895761
30
0.0
10
51.322077
20
7.724903
30
0.0
10
51.322077
20
7.724903
30
0.0
62
0
0
LWPOLYLINE
100
AcDbPolyline
8
Layer_1
90
42
70
0
10
60.935272
20
2.565514
30
0.0
10
60.841565
20
1.694605
30
0.0
10
60.585251
20
1.161289
30
0.0
10
60.036792
20
0.983518
30
0.0
10
59.626136
20
1.092385
30
0.0
10
59.165871
20
1.418986
30
0.0
10
56.907267
20
3.716184
30
0.0
10
54.375812
20
6.782309
30
0.0
10
54.342738
20
5.023924
30
0.0
10
54.359277
20
3.712042
30
0.0
10
54.381318
20
2.400160
30
0.0
10
54.182881
20
1.180600
30
0.0
10
53.934834
20
0.875710
30
0.0
10
53.587568
20
0.774080
30
0.0
10
52.942645
20
1.022126
30
0.0
10
52.727671
20
1.556796
30
0.0
10
52.760745
20
2.223771
30
0.0
10
52.799330
20
2.890747
30
0.0
10
52.821372
20
3.866389
30
0.0
10
52.843413
20
4.842032
30
0.0
10
52.826875
20
5.889358
30
0.0
10
52.810337
20
6.936657
30
0.0
10
52.744192
20
7.923334
30
0.0
10
52.678045
20
8.910011
30
0.0
10
52.959167
20
9.499799
30
0.0
10
53.609598
20
9.758879
30
0.0
10
54.039548
20
9.582490
30
0.0
10
54.513593
20
9.053323
30
0.0
10
56.999574
20
5.810795
30
0.0
10
59.452482
20
3.226987
30
0.0
10
59.457985
20
4.064820
30
0.0
10
59.402864
20
7.730407
30
0.0
10
59.331205
20
8.325726
30
0.0
10
59.276084
20
8.932052
30
0.0
10
59.477278
20
9.502558
30
0.0
10
60.080858
20
9.692726
30
0.0
10
60.473943
20
9.519438
30
0.0
10
60.754718
20
8.999574
30
0.0
10
60.979338
20
6.920118
30
0.0
10
60.968303
20
6.049209
30
0.0
10
60.935229
20
2.565514
30
0.0
10
60.935272
20
2.565514
30
0.0
62
0
0
LWPOLYLINE
100
AcDbPolyline
8
Layer_1
90
49
70
0
10
68.751506
20
4.450674
30
0.0
10
68.186510
20
2.972041
30
0.0
10
67.241174
20
1.821379
30
0.0
10
65.989916
20
1.077244
30
0.0
10
64.540220
20
0.829198
30
0.0
10
63.257267
20
1.022118
30
0.0
10
62.340871
20
1.600879
30
0.0
10
61.791035
20
2.571018
30
0.0
10
61.607756
20
3.927011
30
0.0
10
61.781389
20
5.356036
30
0.0
10
62.302286
20
6.820889
30
0.0
10
63.096036
20
8.163103
30
0.0
10
64.088224
20
9.224209
30
0.0
10
64.881974
20
9.707888
30
0.0
10
65.730845
20
9.869115
30
0.0
10
67.186054
20
9.483261
30
0.0
10
68.004609
20
9.010595
30
0.0
10
68.277461
20
8.507618
30
0.0
10
68.051463
20
7.972948
30
0.0
10
67.494734
20
7.741442
30
0.0
10
66.761620
20
8.050108
30
0.0
10
65.730845
20
8.364306
30
0.0
10
65.147936
20
8.096964
30
0.0
10
64.391393
20
7.294938
30
0.0
10
63.469485
20
5.675744
30
0.0
10
63.239008
20
4.817570
30
0.0
10
63.162183
20
3.927011
30
0.0
10
63.229707
20
3.153933
30
0.0
10
63.432278
20
2.675750
30
0.0
10
63.852580
20
2.415316
30
0.0
10
64.540220
20
2.328504
30
0.0
10
65.332592
20
2.448392
30
0.0
10
66.022990
20
2.808056
30
0.0
10
66.612790
20
3.430935
30
0.0
10
67.026203
20
4.285320
30
0.0
10
65.830065
20
4.104789
30
0.0
10
64.799292
20
3.761657
30
0.0
10
64.457538
20
3.684497
30
0.0
10
63.889786
20
3.938046
30
0.0
10
63.685838
20
4.450674
30
0.0
10
63.810550
20
4.840661
30
0.0
10
64.184687
20
5.167257
30
0.0
10
65.681236
20
5.630278
30
0.0
10
68.305022
20
5.817674
30
0.0
10
68.856236
20
5.602705
30
0.0
10
69.082234
20
5.073538
30
0.0
10
68.999552
20
4.716626
30
0.0
10
68.751506
20
4.450674
30
0.0
10
68.751506
20
4.450674
30
0.0
62
0
0
LWPOLYLINE
100
AcDbPolyline
8
Layer_1
90
36
70
0
10
-55.751490
20
-6.292510
30
0.0
10
-57.090942
20
-6.231889
30
0.0
10
-58.430394
20
-6.176771
30
0.0
10
-58.281567
20
-8.414680
30
0.0
10
-58.165811
20
-10.663652
30
0.0
10
-58.127228
20
-11.220364
30
0.0
10
-58.088643
20
-11.777104
30
0.0
10
-58.265032
20
-12.521239
30
0.0
10
-58.539261
20
-12.839565
30
0.0
10
-58.909952
20
-12.945673
30
0.0
10
-59.444630
20
-12.752746
30
0.0
10
-59.703702
20
-12.212573
30
0.0
10
-59.676129
20
-11.981066
30
0.0
10
-59.648556
20
-11.738524
30
0.0
10
-59.687141
20
-10.972319
30
0.0
10
-59.720215
20
-10.200639
30
0.0
10
-59.835968
20
-8.199711
30
0.0
10
-59.990310
20
-6.198812
30
0.0
10
-60.276940
20
-6.198812
30
0.0
10
-62.228245
20
-6.022423
30
0.0
10
-62.687129
20
-5.767478
30
0.0
10
-62.840091
20
-5.300330
30
0.0
10
-62.641655
20
-4.793204
30
0.0
10
-62.374316
20
-4.597526
30
0.0
10
-62.035317
20
-4.550663
30
0.0
10
-61.158885
20
-4.644389
30
0.0
10
-60.276940
20
-4.705010
30
0.0
10
-59.273731
20
-4.694003
30
0.0
10
-58.265006
20
-4.682997
30
0.0
10
-57.008234
20
-4.743618
30
0.0
10
-55.751465
20
-4.798736
30
0.0
10
-55.200248
20
-5.013733
30
0.0
10
-54.974250
20
-5.542900
30
0.0
10
-55.200248
20
-6.077570
30
0.0
10
-55.751465
20
-6.292538
30
0.0
10
-55.751490
20
-6.292510
30
0.0
62
0
0
LWPOLYLINE
100
AcDbPolyline
8
Layer_1
90
27
70
0
10
-50.713380
20
-13.237830
30
0.0
10
-52.223710
20
-13.003564
30
0.0
10
-53.491505
20
-12.300767
30
0.0
10
-54.026874
20
-11.762298
30
0.0
10
-54.409279
20
-11.150105
30
0.0
10
-54.638723
20
-10.464188
30
0.0
10
-54.715204
20
-9.704548
30
0.0
10
-54.641824
20
-8.788145
30
0.0
10
-54.421682
20
-7.913086
30
0.0
10
-53.541117
20
-6.287007
30
0.0
10
-52.839695
20
-5.527356
30
0.0
10
-52.052835
20
-4.984749
30
0.0
10
-51.180536
20
-4.659184
30
0.0
10
-50.222799
20
-4.550663
30
0.0
10
-48.540216
20
-4.771149
30
0.0
10
-47.879791
20
-5.046756
30
0.0
10
-47.339944
20
-5.432607
30
0.0
10
-46.920331
20
-5.929047
30
0.0
10
-46.620608
20
-6.536421
30
0.0
10
-46.380829
20
-8.083972
30
0.0
10
-46.650925
20
-9.869902
30
0.0
10
-47.461212
20
-11.479444
30
0.0
10
-48.131628
20
-12.248738
30
0.0
10
-48.897127
20
-12.798233
30
0.0
10
-49.757712
20
-13.127930
30
0.0
10
-50.713380
20
-13.237830
30
0.0
10
-50.713380
20
-13.237830
30
0.0
62
0
0
LWPOLYLINE
100
AcDbPolyline
8
Layer_1
90
20
70
0
10
-50.222799
20
-6.044465
30
0.0
10
-50.815356
20
-6.118880
30
0.0
10
-51.363815
20
-6.342125
30
0.0
10
-52.328442
20
-7.235104
30
0.0
10
-52.944426
20
-8.409191
30
0.0
10
-53.149754
20
-9.704548
30
0.0
10
-52.971987
20
-10.534112
30
0.0
10
-52.438687
20
-11.192819
30
0.0
10
-51.665606
20
-11.606225
30
0.0
10
-50.713380
20
-11.744027
30
0.0
10
-50.132193
20
-11.669614
30
0.0
10
-49.601305
20
-11.446375
30
0.0
10
-48.690423
20
-10.553416
30
0.0
10
-48.132317
20
-9.393102
30
0.0
10
-47.946282
20
-8.083972
30
0.0
10
-48.075817
20
-7.102798
30
0.0
10
-48.464422
20
-6.474402
30
0.0
10
-49.152064
20
-6.151949
30
0.0
10
-50.222799
20
-6.044465
30
0.0
10
-50.222799
20
-6.044465
30
0.0
62
0
0
LWPOLYLINE
100
AcDbPolyline
8
Layer_1
90
24
70
0
10
-36.260518
20
-12.686621
30
0.0
10
-37.714348
20
-13.046285
30
0.0
10
-39.507174
20
-13.166173
30
0.0
10
-40.102488
20
-12.890555
30
0.0
10
-40.361560
20
-12.300767
30
0.0
10
-40.361560
20
-6.457864
30
0.0
10
-40.389133
20
-5.708225
30
0.0
10
-40.361560
20
-4.991635
30
0.0
10
-40.081817
20
-4.575477
30
0.0
10
-39.396932
20
-4.363267
30
0.0
10
-38.007869
20
-4.241996
30
0.0
10
-36.988121
20
-4.410116
30
0.0
10
-36.012470
20
-4.914475
30
0.0
10
-35.173245
20
-5.795037
30
0.0
10
-34.893504
20
-6.871291
30
0.0
10
-35.125014
20
-7.940660
30
0.0
10
-35.758910
20
-8.695802
30
0.0
10
-34.810821
20
-9.478545
30
0.0
10
-34.459421
20
-10.061454
30
0.0
10
-34.342287
20
-10.641611
30
0.0
10
-34.542103
20
-11.355421
30
0.0
10
-35.141549
20
-12.030652
30
0.0
10
-36.260518
20
-12.686621
30
0.0
10
-36.260518
20
-12.686621
30
0.0
62
0
0
LWPOLYLINE
100
AcDbPolyline
8
Layer_1
90
14
70
0
10
-38.007869
20
-5.735798
30
0.0
10
-38.862254
20
-5.746805
30
0.0
10
-38.856751
20
-6.915374
30
0.0
10
-38.862254
20
-8.072937
30
0.0
10
-38.107089
20
-8.111517
30
0.0
10
-37.369149
20
-7.984399
30
0.0
10
-36.842049
20
-7.735322
30
0.0
10
-36.525789
20
-7.364286
30
0.0
10
-36.420369
20
-6.871291
30
0.0
10
-36.544393
20
-6.486820
30
0.0
10
-36.916464
20
-6.116121
30
0.0
10
-37.445630
20
-5.830879
30
0.0
10
-38.007869
20
-5.735798
30
0.0
10
-38.007869
20
-5.735798
30
0.0
62
0
0
LWPOLYLINE
100
AcDbPolyline
8
Layer_1
90
10
70
0
10
-37.362948
20
-9.632864
30
0.0
10
-38.862254
20
-9.594284
30
0.0
10
-38.862254
20
-11.655833
30
0.0
10
-36.806220
20
-11.292048
30
0.0
10
-36.081372
20
-11.005409
30
0.0
10
-35.847105
20
-10.696729
30
0.0
10
-36.011092
20
-10.295719
30
0.0
10
-36.469978
20
-9.941559
30
0.0
10
-37.362948
20
-9.632864
30
0.0
10
-37.362948
20
-9.632864
30
0.0
62
0
0
LWPOLYLINE
100
AcDbPolyline
8
Layer_1
90
47
70
0
10
-27.898581
20
-5.835000
30
0.0
10
-28.130092
20
-5.801923
30
0.0
10
-29.866421
20
-5.559410
30
0.0
10
-30.753877
20
-5.625534
30
0.0
10
-31.762601
20
-5.823993
30
0.0
10
-31.812210
20
-8.001281
30
0.0
10
-29.656958
20
-7.797319
30
0.0
10
-28.323018
20
-7.692586
30
0.0
10
-27.766290
20
-7.902052
30
0.0
10
-27.534779
20
-8.447756
30
0.0
10
-27.709790
20
-8.961761
30
0.0
10
-28.234823
20
-9.191892
30
0.0
10
-29.552228
20
-9.302156
30
0.0
10
-31.911428
20
-9.517125
30
0.0
10
-31.950014
20
-10.647114
30
0.0
10
-31.823234
20
-11.876333
30
0.0
10
-31.128702
20
-11.947989
30
0.0
10
-30.097930
20
-11.931338
30
0.0
10
-29.067159
20
-11.914687
30
0.0
10
-28.741940
20
-11.881611
30
0.0
10
-28.422236
20
-11.848534
30
0.0
10
-27.876533
20
-12.030426
30
0.0
10
-27.682229
20
-12.275727
30
0.0
10
-27.617461
20
-12.603704
30
0.0
10
-27.778692
20
-13.097043
30
0.0
10
-28.262382
20
-13.342336
30
0.0
10
-30.549926
20
-13.447069
30
0.0
10
-32.034074
20
-13.325798
30
0.0
10
-32.892591
20
-12.961986
30
0.0
10
-33.343210
20
-12.115876
30
0.0
10
-33.493416
20
-10.646888
30
0.0
10
-33.388687
20
-8.430992
30
0.0
10
-33.278442
20
-6.215125
30
0.0
10
-33.333563
20
-5.647378
30
0.0
10
-33.388687
20
-5.074100
30
0.0
10
-33.195761
20
-4.445725
30
0.0
10
-32.616984
20
-4.236267
30
0.0
10
-32.170500
20
-4.374048
30
0.0
10
-30.957825
20
-4.137038
30
0.0
10
-29.866421
20
-4.054347
30
0.0
10
-28.616539
20
-4.134272
30
0.0
10
-27.645022
20
-4.374048
30
0.0
10
-27.264684
20
-4.645525
30
0.0
10
-27.137904
20
-5.074100
30
0.0
10
-27.336342
20
-5.581225
30
0.0
10
-27.898581
20
-5.834774
30
0.0
10
-27.898581
20
-5.835000
30
0.0
62
0
0
LWPOLYLINE
100
AcDbPolyline
8
Layer_1
90
27
70
0
10
-17.728660
20
-13.237830
30
0.0
10
-19.238989
20
-13.003564
30
0.0
10
-20.506785
20
-12.300767
30
0.0
10
-21.042152
20
-11.762298
30
0.0
10
-21.424558
20
-11.150105
30
0.0
10
-21.654001
20
-10.464188
30
0.0
10
-21.730482
20
-9.704548
30
0.0
10
-21.657102
20
-8.788145
30
0.0
10
-21.436960
20
-7.913086
30
0.0
10
-20.556394
20
-6.287007
30
0.0
10
-19.854972
20
-5.527356
30
0.0
10
-19.068113
20
-4.984749
30
0.0
10
-18.195814
20
-4.659184
30
0.0
10
-17.238078
20
-4.550663
30
0.0
10
-15.555493
20
-4.771149
30
0.0
10
-14.895068
20
-5.046756
30
0.0
10
-14.355222
20
-5.432607
30
0.0
10
-13.935609
20
-5.929047
30
0.0
10
-13.635886
20
-6.536421
30
0.0
10
-13.396107
20
-8.083972
30
0.0
10
-13.666203
20
-9.869902
30
0.0
10
-14.476489
20
-11.479444
30
0.0
10
-15.146905
20
-12.248738
30
0.0
10
-15.912405
20
-12.798233
30
0.0
10
-16.772990
20
-13.127930
30
0.0
10
-17.728660
20
-13.237830
30
0.0
10
-17.728660
20
-13.237830
30
0.0
62
0
0
LWPOLYLINE
100
AcDbPolyline
8
Layer_1
90
20
70
0
10
-17.238078
20
-6.044465
30
0.0
10
-17.830634
20
-6.118880
30
0.0
10
-18.379093
20
-6.342125
30
0.0
10
-19.343720
20
-7.235104
30
0.0
10
-19.959703
20
-8.409191
30
0.0
10
-20.165031
20
-9.704548
30
0.0
10
-19.987264
20
-10.534112
30
0.0
10
-19.453963
20
-11.192819
30
0.0
10
-18.680884
20
-11.606225
30
0.0
10
-17.728660
20
-11.744027
30
0.0
10
-17.147472
20
-11.669614
30
0.0
10
-16.616583
20
-11.446375
30
0.0
10
-15.705699
20
-10.553416
30
0.0
10
-15.147594
20
-9.393102
30
0.0
10
-14.961559
20
-8.083972
30
0.0
10
-15.091094
20
-7.102798
30
0.0
10
-15.479701
20
-6.474402
30
0.0
10
-16.167342
20
-6.151949
30
0.0
10
-17.238078
20
-6.044465
30
0.0
10
-17.238078
20
-6.044465
30
0.0
62
0
0
LWPOLYLINE
100
AcDbPolyline
8
Layer_1
90
42
70
0
10
-4.328616
20
-11.545597
30
0.0
10
-4.422323
20
-12.416506
30
0.0
10
-4.678638
20
-12.949822
30
0.0
10
-5.227097
20
-13.127594
30
0.0
10
-5.637752
20
-13.018726
30
0.0
10
-6.098017
20
-12.692125
30
0.0
10
-8.356622
20
-10.394928
30
0.0
10
-10.888078
20
-7.328802
30
0.0
10
-10.921151
20
-9.087187
30
0.0
10
-10.904615
20
-10.399069
30
0.0
10
-10.882565
20
-11.710951
30
0.0
10
-11.081003
20
-12.930511
30
0.0
10
-11.329050
20
-13.235401
30
0.0
10
-11.676315
20
-13.337031
30
0.0
10
-12.321237
20
-13.088986
30
0.0
10
-12.536211
20
-12.554316
30
0.0
10
-12.503138
20
-11.887340
30
0.0
10
-12.464553
20
-11.220364
30
0.0
10
-12.442503
20
-10.244722
30
0.0
10
-12.420453
20
-9.269080
30
0.0
10
-12.436989
20
-8.221753
30
0.0
10
-12.453524
20
-7.174454
30
0.0
10
-12.519670
20
-6.187777
30
0.0
10
-12.585816
20
-5.201100
30
0.0
10
-12.304696
20
-4.611312
30
0.0
10
-11.654262
20
-4.352232
30
0.0
10
-11.224314
20
-4.528621
30
0.0
10
-10.750269
20
-5.057788
30
0.0
10
-8.264288
20
-8.300317
30
0.0
10
-5.811380
20
-10.884124
30
0.0
10
-5.805868
20
-10.046291
30
0.0
10
-5.860990
20
-6.380704
30
0.0
10
-5.932648
20
-5.785385
30
0.0
10
-5.987769
20
-5.179059
30
0.0
10
-5.786576
20
-4.608554
30
0.0
10
-5.182995
20
-4.418385
30
0.0
10
-4.789910
20
-4.591673
30
0.0
10
-4.509134
20
-5.111537
30
0.0
10
-4.284514
20
-7.190993
30
0.0
10
-4.295538
20
-8.061902
30
0.0
10
-4.328611
20
-11.545597
30
0.0
10
-4.328616
20
-11.545597
30
0.0
62
0
0
LWPOLYLINE
100
AcDbPolyline
8
Layer_1
90
27
70
0
10
7.913875
20
-13.066944
30
0.0
10
7.477037
20
-12.802304
30
0.0
10
7.037443
20
-12.041687
30
0.0
10
6.535837
20
-10.542382
30
0.0
10
5.201896
20
-10.663652
30
0.0
10
3.867955
20
-10.806965
30
0.0
10
2.986011
20
-12.631475
30
0.0
10
2.696623
20
-12.929142
30
0.0
10
2.313528
20
-13.028364
30
0.0
10
1.767825
20
-12.824402
30
0.0
10
1.525290
20
-12.295236
30
0.0
10
2.330064
20
-10.388034
30
0.0
10
2.263919
20
-10.068333
30
0.0
10
2.408613
20
-9.832691
30
0.0
10
2.798597
20
-9.654934
30
0.0
10
4.540438
20
-6.843718
30
0.0
10
5.653893
20
-5.276898
30
0.0
10
6.238181
20
-4.754625
30
0.0
10
6.743921
20
-4.937900
30
0.0
10
7.048467
20
-5.487725
30
0.0
10
7.395733
20
-7.257146
30
0.0
10
8.217044
20
-10.889656
30
0.0
10
8.498164
20
-11.617253
30
0.0
10
8.696601
20
-12.328312
30
0.0
10
8.454066
20
-12.863010
30
0.0
10
7.913875
20
-13.066944
30
0.0
10
7.913875
20
-13.066944
30
0.0
62
0
0
LWPOLYLINE
100
AcDbPolyline
8
Layer_1
90
6
70
0
10
5.857842
20
-7.411493
30
0.0
10
4.672729
20
-9.423427
30
0.0
10
5.444431
20
-9.335232
30
0.0
10
6.221644
20
-9.274583
30
0.0
10
5.857842
20
-7.411493
30
0.0
10
5.857842
20
-7.411493
30
0.0
62
0
0
LWPOLYLINE
100
AcDbPolyline
8
Layer_1
90
31
70
0
10
20.393389
20
-12.967743
30
0.0
10
19.847686
20
-12.736208
30
0.0
10
18.094821
20
-11.410547
30
0.0
10
16.176592
20
-10.564423
30
0.0
10
16.237226
20
-12.344850
30
0.0
10
16.016740
20
-12.879548
30
0.0
10
15.465525
20
-13.094517
30
0.0
10
14.914309
20
-12.879548
30
0.0
10
14.693823
20
-12.344850
30
0.0
10
14.704847
20
-11.110128
30
0.0
10
14.715870
20
-9.869902
30
0.0
10
14.726894
20
-5.421600
30
0.0
10
14.941868
20
-4.771163
30
0.0
10
15.276731
20
-4.499693
30
0.0
10
15.719082
20
-4.434923
30
0.0
10
17.091608
20
-4.539656
30
0.0
10
18.403500
20
-4.908972
30
0.0
10
19.433239
20
-5.537010
30
0.0
10
20.168767
20
-6.236016
30
0.0
10
20.610084
20
-7.005991
30
0.0
10
20.757189
20
-7.846934
30
0.0
10
20.633166
20
-8.527689
30
0.0
10
20.261095
20
-9.125767
30
0.0
10
19.646490
20
-9.634261
30
0.0
10
18.783838
20
-10.057326
30
0.0
10
20.064036
20
-10.881387
30
0.0
10
20.983188
20
-11.721986
30
0.0
10
21.176113
20
-12.212573
30
0.0
10
20.944602
20
-12.747243
30
0.0
10
20.393387
20
-12.967743
30
0.0
10
20.393389
20
-12.967743
30
0.0
62
0
0
LWPOLYLINE
100
AcDbPolyline
8
Layer_1
90
13
70
0
10
16.860099
20
-6.033430
30
0.0
10
16.215177
20
-5.989347
30
0.0
10
16.215177
20
-8.916302
30
0.0
10
16.457712
20
-8.921664
30
0.0
10
17.633179
20
-8.837604
30
0.0
10
18.458624
20
-8.585424
30
0.0
10
18.971254
20
-8.205102
30
0.0
10
19.208276
20
-7.846792
30
0.0
10
19.012595
20
-7.240459
30
0.0
10
18.425551
20
-6.656182
30
0.0
10
17.662117
20
-6.230358
30
0.0
10
16.860099
20
-6.033289
30
0.0
10
16.860099
20
-6.033430
30
0.0
62
0
0
LWPOLYLINE
100
AcDbPolyline
8
Layer_1
90
33
70
0
10
26.693780
20
-6.386208
30
0.0
10
25.122816
20
-6.231889
30
0.0
10
25.045646
20
-8.927308
30
0.0
10
25.040134
20
-11.402284
30
0.0
10
26.533928
20
-11.385633
30
0.0
10
27.079631
20
-11.606105
30
0.0
10
27.300117
20
-12.135272
30
0.0
10
27.079631
20
-12.664439
30
0.0
10
26.533928
20
-12.879436
30
0.0
10
25.607886
20
-12.896087
30
0.0
10
24.681844
20
-12.907093
30
0.0
10
23.590438
20
-13.000791
30
0.0
10
22.499032
20
-13.100020
30
0.0
10
21.947817
20
-12.885052
30
0.0
10
21.732843
20
-12.355885
30
0.0
10
21.947817
20
-11.826718
30
0.0
10
22.499032
20
-11.606218
30
0.0
10
23.485707
20
-11.523555
30
0.0
10
23.474684
20
-9.032041
30
0.0
10
23.584927
20
-6.171239
30
0.0
10
22.388790
20
-6.204316
30
0.0
10
21.832062
20
-5.989347
30
0.0
10
21.611576
20
-5.454677
30
0.0
10
21.832062
20
-4.925510
30
0.0
10
22.333668
20
-4.710513
30
0.0
10
24.020387
20
-4.666430
30
0.0
10
26.804024
20
-4.897937
30
0.0
10
27.312520
20
-5.134954
30
0.0
10
27.482019
20
-5.658611
30
0.0
10
27.413117
20
-5.974185
30
0.0
10
27.206411
20
-6.215350
30
0.0
10
26.693781
20
-6.386208
30
0.0
10
26.693780
20
-6.386208
30
0.0
62
0
0
LWPOLYLINE
100
AcDbPolyline
8
Layer_1
90
42
70
0
10
36.306974
20
-11.545597
30
0.0
10
36.213268
20
-12.416506
30
0.0
10
35.956953
20
-12.949822
30
0.0
10
35.408495
20
-13.127594
30
0.0
10
34.997839
20
-13.018726
30
0.0
10
34.537574
20
-12.692125
30
0.0
10
32.278969
20
-10.394928
30
0.0
10
29.747512
20
-7.328802
30
0.0
10
29.714438
20
-9.087187
30
0.0
10
29.730977
20
-10.399069
30
0.0
10
29.753018
20
-11.710951
30
0.0
10
29.554581
20
-12.930511
30
0.0
10
29.306534
20
-13.235401
30
0.0
10
28.959268
20
-13.337031
30
0.0
10
28.314348
20
-13.088986
30
0.0
10
28.099373
20
-12.554316
30
0.0
10
28.132446
20
-11.887340
30
0.0
10
28.171031
20
-11.220364
30
0.0
10
28.193081
20
-10.244722
30
0.0
10
28.215131
20
-9.269080
30
0.0
10
28.198596
20
-8.221753
30
0.0
10
28.182060
20
-7.174454
30
0.0
10
28.115914
20
-6.187777
30
0.0
10
28.049769
20
-5.201100
30
0.0
10
28.330888
20
-4.611312
30
0.0
10
28.981323
20
-4.352232
30
0.0
10
29.411270
20
-4.528621
30
0.0
10
29.885315
20
-5.057788
30
0.0
10
32.371296
20
-8.300317
30
0.0
10
34.824203
20
-10.884124
30
0.0
10
34.829707
20
-10.046291
30
0.0
10
34.774586
20
-6.380704
30
0.0
10
34.702930
20
-5.785385
30
0.0
10
34.647806
20
-5.179059
30
0.0
10
34.849000
20
-4.608554
30
0.0
10
35.452583
20
-4.418385
30
0.0
10
35.845667
20
-4.591673
30
0.0
10
36.126442
20
-5.111537
30
0.0
10
36.351062
20
-7.190993
30
0.0
10
36.340028
20
-8.061902
30
0.0
10
36.306954
20
-11.545597
30
0.0
10
36.306974
20
-11.545597
30
0.0
62
0
0
LWPOLYLINE
100
AcDbPolyline
8
Layer_1
90
49
70
0
10
44.123206
20
-9.660437
30
0.0
10
43.558212
20
-11.139070
30
0.0
10
42.612877
20
-12.289732
30
0.0
10
41.361619
20
-13.033868
30
0.0
10
39.911923
20
-13.281913
30
0.0
10
38.628968
20
-13.088993
30
0.0
10
37.712574
20
-12.510232
30
0.0
10
37.162736
20
-11.540094
30
0.0
10
36.979456
20
-10.184100
30
0.0
10
37.153089
20
-8.755075
30
0.0
10
37.673988
20
-7.290222
30
0.0
10
38.467738
20
-5.948008
30
0.0
10
39.459924
20
-4.886902
30
0.0
10
40.253676
20
-4.403223
30
0.0
10
41.102548
20
-4.241996
30
0.0
10
42.557756
20
-4.627850
30
0.0
10
43.376310
20
-5.100516
30
0.0
10
43.649161
20
-5.603493
30
0.0
10
43.423163
20
-6.138163
30
0.0
10
42.866437
20
-6.369670
30
0.0
10
42.133320
20
-6.061003
30
0.0
10
41.102548
20
-5.746805
30
0.0
10
40.519636
20
-6.014147
30
0.0
10
39.763093
20
-6.816173
30
0.0
10
38.841185
20
-8.435367
30
0.0
10
38.610708
20
-9.293541
30
0.0
10
38.533883
20
-10.184100
30
0.0
10
38.601407
20
-10.957178
30
0.0
10
38.803981
20
-11.435361
30
0.0
10
39.224282
20
-11.695796
30
0.0
10
39.911923
20
-11.782607
30
0.0
10
40.704294
20
-11.662719
30
0.0
10
41.394690
20
-11.303055
30
0.0
10
41.984492
20
-10.680177
30
0.0
10
42.397903
20
-9.825791
30
0.0
10
41.201766
20
-10.006322
30
0.0
10
40.170995
20
-10.349454
30
0.0
10
39.829240
20
-10.426614
30
0.0
10
39.261488
20
-10.173066
30
0.0
10
39.057538
20
-9.660437
30
0.0
10
39.182250
20
-9.270450
30
0.0
10
39.556388
20
-8.943854
30
0.0
10
41.052939
20
-8.480833
30
0.0
10
43.676722
20
-8.293437
30
0.0
10
44.227939
20
-8.508406
30
0.0
10
44.453937
20
-9.037573
30
0.0
10
44.371254
20
-9.394485
30
0.0
10
44.123206
20
-9.660437
30
0.0
10
44.123206
20
-9.660437
30
0.0
  0
ENDSEC
  0
SECTION
  2
OBJECTS
  0
DICTIONARY
  5
C
330
0
100
AcDbDictionary
  3
ACAD_GROUP
350
D
  3
ACAD_MLINESTYLE
350
17
  0
DICTIONARY
  5
D
330
C
100
AcDbDictionary
  0
DICTIONARY
  5
1A
330
C
100
AcDbDictionary
  0
DICTIONARY
  5
17
330
C
100
AcDbDictionary
  3
STANDARD
350
18
  0
DICTIONARY
  5
19
330
C
100
AcDbDictionary
  0
ENDSEC
  0
EOF
